<svg width="700" height="250" viewBox="0 0 700 250" fill="none" xmlns="http://www.w3.org/2000/svg">
<circle cx="107" cy="82" r="48.5" fill="white" stroke="#222222" stroke-width="3"/>
<path d="M103.417 73C103.417 83.504 96.4594 91.5 88.4583 91.5C80.4573 91.5 73.5 83.504 73.5 73C73.5 62.496 80.4573 54.5 88.4583 54.5C96.4594 54.5 103.417 62.496 103.417 73Z" fill="white" stroke="#222222" stroke-width="3"/>
<circle cx="96" cy="73" r="5" fill="#222222"/>
<path d="M140.417 73C140.417 83.504 133.459 91.5 125.458 91.5C117.457 91.5 110.5 83.504 110.5 73C110.5 62.496 117.457 54.5 125.458 54.5C133.459 54.5 140.417 62.496 140.417 73Z" fill="white" stroke="#222222" stroke-width="3"/>
<circle cx="118" cy="73" r="5" fill="#222222"/>
<circle cx="107" cy="82" r="48.5" fill="white" stroke="#222222" stroke-width="3"/>
<path d="M103.417 73C103.417 83.504 96.4594 91.5 88.4583 91.5C80.4573 91.5 73.5 83.504 73.5 73C73.5 62.496 80.4573 54.5 88.4583 54.5C96.4594 54.5 103.417 62.496 103.417 73Z" fill="white" stroke="#222222" stroke-width="3"/>
<circle cx="96" cy="73" r="5" fill="#222222"/>
<path d="M140.417 73C140.417 83.504 133.459 91.5 125.458 91.5C117.457 91.5 110.5 83.504 110.5 73C110.5 62.496 117.457 54.5 125.458 54.5C133.459 54.5 140.417 62.496 140.417 73Z" fill="white" stroke="#222222" stroke-width="3"/>
<circle cx="118" cy="73" r="5" fill="#222222"/>
<circle cx="269" cy="82" r="48.5" fill="white" stroke="#222222" stroke-width="3"/>
<path d="M66.5 211.014V159.679L71.5777 158.236C80.0472 155.829 89.0123 155.772 97.5114 158.073L103.5 159.694V211.04L98.2954 209.631C89.2705 207.188 79.7509 207.248 70.7575 209.804L66.5 211.014Z" fill="white" stroke="#222222" stroke-width="3"/>
<path d="M110.5 211.014V159.679L115.578 158.236C124.047 155.829 133.012 155.772 141.511 158.073L147.5 159.694V211.04L142.295 209.631C133.271 207.188 123.751 207.248 114.757 209.804L110.5 211.014Z" fill="white" stroke="#222222" stroke-width="3"/>
<path d="M89.527 167.455V198H84.9034V172.078H84.7244L77.4162 176.851V172.436L85.0376 167.455H89.527Z" fill="#222222"/>
<path d="M89.527 167.455V198H84.9034V172.078H84.7244L77.4162 176.851V172.436L85.0376 167.455H89.527Z" fill="#222222"/>
<path d="M89.527 167.455V198H84.9034V172.078H84.7244L77.4162 176.851V172.436L85.0376 167.455H89.527Z" fill="#222222"/>
<path d="M89.527 167.455V198H84.9034V172.078H84.7244L77.4162 176.851V172.436L85.0376 167.455H89.527Z" fill="#222222"/>
<path d="M118.938 198V194.659L129.274 183.95C130.378 182.787 131.288 181.768 132.004 180.893C132.729 180.008 133.271 179.168 133.629 178.372C133.987 177.577 134.166 176.732 134.166 175.837C134.166 174.822 133.928 173.947 133.45 173.212C132.973 172.466 132.322 171.894 131.496 171.496C130.671 171.089 129.741 170.885 128.707 170.885C127.614 170.885 126.659 171.109 125.844 171.556C125.028 172.004 124.402 172.635 123.964 173.45C123.527 174.266 123.308 175.22 123.308 176.314H118.908C118.908 174.455 119.336 172.829 120.191 171.437C121.046 170.045 122.219 168.966 123.711 168.2C125.202 167.425 126.898 167.037 128.797 167.037C130.716 167.037 132.406 167.42 133.868 168.185C135.339 168.941 136.488 169.975 137.313 171.288C138.138 172.59 138.551 174.062 138.551 175.702C138.551 176.836 138.337 177.945 137.91 179.028C137.492 180.112 136.761 181.32 135.717 182.653C134.673 183.975 133.222 185.581 131.362 187.47L125.292 193.824V194.048H139.043V198H118.938Z" fill="#222222"/>
<path d="M118.938 198V194.659L129.274 183.95C130.378 182.787 131.288 181.768 132.004 180.893C132.729 180.008 133.271 179.168 133.629 178.372C133.987 177.577 134.166 176.732 134.166 175.837C134.166 174.822 133.928 173.947 133.45 173.212C132.973 172.466 132.322 171.894 131.496 171.496C130.671 171.089 129.741 170.885 128.707 170.885C127.614 170.885 126.659 171.109 125.844 171.556C125.028 172.004 124.402 172.635 123.964 173.45C123.527 174.266 123.308 175.22 123.308 176.314H118.908C118.908 174.455 119.336 172.829 120.191 171.437C121.046 170.045 122.219 168.966 123.711 168.2C125.202 167.425 126.898 167.037 128.797 167.037C130.716 167.037 132.406 167.42 133.868 168.185C135.339 168.941 136.488 169.975 137.313 171.288C138.138 172.59 138.551 174.062 138.551 175.702C138.551 176.836 138.337 177.945 137.91 179.028C137.492 180.112 136.761 181.32 135.717 182.653C134.673 183.975 133.222 185.581 131.362 187.47L125.292 193.824V194.048H139.043V198H118.938Z" fill="#222222"/>
<path d="M118.938 198V194.659L129.274 183.95C130.378 182.787 131.288 181.768 132.004 180.893C132.729 180.008 133.271 179.168 133.629 178.372C133.987 177.577 134.166 176.732 134.166 175.837C134.166 174.822 133.928 173.947 133.45 173.212C132.973 172.466 132.322 171.894 131.496 171.496C130.671 171.089 129.741 170.885 128.707 170.885C127.614 170.885 126.659 171.109 125.844 171.556C125.028 172.004 124.402 172.635 123.964 173.45C123.527 174.266 123.308 175.22 123.308 176.314H118.908C118.908 174.455 119.336 172.829 120.191 171.437C121.046 170.045 122.219 168.966 123.711 168.2C125.202 167.425 126.898 167.037 128.797 167.037C130.716 167.037 132.406 167.42 133.868 168.185C135.339 168.941 136.488 169.975 137.313 171.288C138.138 172.59 138.551 174.062 138.551 175.702C138.551 176.836 138.337 177.945 137.91 179.028C137.492 180.112 136.761 181.32 135.717 182.653C134.673 183.975 133.222 185.581 131.362 187.47L125.292 193.824V194.048H139.043V198H118.938Z" fill="#222222"/>
<path d="M118.938 198V194.659L129.274 183.95C130.378 182.787 131.288 181.768 132.004 180.893C132.729 180.008 133.271 179.168 133.629 178.372C133.987 177.577 134.166 176.732 134.166 175.837C134.166 174.822 133.928 173.947 133.45 173.212C132.973 172.466 132.322 171.894 131.496 171.496C130.671 171.089 129.741 170.885 128.707 170.885C127.614 170.885 126.659 171.109 125.844 171.556C125.028 172.004 124.402 172.635 123.964 173.45C123.527 174.266 123.308 175.22 123.308 176.314H118.908C118.908 174.455 119.336 172.829 120.191 171.437C121.046 170.045 122.219 168.966 123.711 168.2C125.202 167.425 126.898 167.037 128.797 167.037C130.716 167.037 132.406 167.42 133.868 168.185C135.339 168.941 136.488 169.975 137.313 171.288C138.138 172.59 138.551 174.062 138.551 175.702C138.551 176.836 138.337 177.945 137.91 179.028C137.492 180.112 136.761 181.32 135.717 182.653C134.673 183.975 133.222 185.581 131.362 187.47L125.292 193.824V194.048H139.043V198H118.938Z" fill="#222222"/>
<path d="M228.5 211.014V159.679L233.578 158.236C242.047 155.829 251.012 155.772 259.511 158.073L265.5 159.694V211.04L260.295 209.631C251.271 207.188 241.751 207.248 232.757 209.804L228.5 211.014Z" fill="white" stroke="#222222" stroke-width="3"/>
<path d="M272.5 211.014V159.679L277.578 158.236C286.047 155.829 295.012 155.772 303.511 158.073L309.5 159.694V211.04L304.295 209.631C295.271 207.188 285.751 207.248 276.757 209.804L272.5 211.014Z" fill="white" stroke="#222222" stroke-width="3"/>
<path d="M251.527 167.455V198H246.903V172.078H246.724L239.416 176.851V172.436L247.038 167.455H251.527Z" fill="#222222"/>
<path d="M251.527 167.455V198H246.903V172.078H246.724L239.416 176.851V172.436L247.038 167.455H251.527Z" fill="#222222"/>
<path d="M251.527 167.455V198H246.903V172.078H246.724L239.416 176.851V172.436L247.038 167.455H251.527Z" fill="#222222"/>
<path d="M251.527 167.455V198H246.903V172.078H246.724L239.416 176.851V172.436L247.038 167.455H251.527Z" fill="#222222"/>
<path d="M280.938 198V194.659L291.274 183.95C292.378 182.787 293.288 181.768 294.004 180.893C294.729 180.008 295.271 179.168 295.629 178.372C295.987 177.577 296.166 176.732 296.166 175.837C296.166 174.822 295.928 173.947 295.45 173.212C294.973 172.466 294.322 171.894 293.496 171.496C292.671 171.089 291.741 170.885 290.707 170.885C289.614 170.885 288.659 171.109 287.844 171.556C287.028 172.004 286.402 172.635 285.964 173.45C285.527 174.266 285.308 175.22 285.308 176.314H280.908C280.908 174.455 281.336 172.829 282.191 171.437C283.046 170.045 284.219 168.966 285.711 168.2C287.202 167.425 288.898 167.037 290.797 167.037C292.716 167.037 294.406 167.42 295.868 168.185C297.339 168.941 298.488 169.975 299.313 171.288C300.138 172.59 300.551 174.062 300.551 175.702C300.551 176.836 300.337 177.945 299.91 179.028C299.492 180.112 298.761 181.32 297.717 182.653C296.673 183.975 295.222 185.581 293.362 187.47L287.292 193.824V194.048H301.043V198H280.938Z" fill="#222222"/>
<path d="M280.938 198V194.659L291.274 183.95C292.378 182.787 293.288 181.768 294.004 180.893C294.729 180.008 295.271 179.168 295.629 178.372C295.987 177.577 296.166 176.732 296.166 175.837C296.166 174.822 295.928 173.947 295.45 173.212C294.973 172.466 294.322 171.894 293.496 171.496C292.671 171.089 291.741 170.885 290.707 170.885C289.614 170.885 288.659 171.109 287.844 171.556C287.028 172.004 286.402 172.635 285.964 173.45C285.527 174.266 285.308 175.22 285.308 176.314H280.908C280.908 174.455 281.336 172.829 282.191 171.437C283.046 170.045 284.219 168.966 285.711 168.2C287.202 167.425 288.898 167.037 290.797 167.037C292.716 167.037 294.406 167.42 295.868 168.185C297.339 168.941 298.488 169.975 299.313 171.288C300.138 172.59 300.551 174.062 300.551 175.702C300.551 176.836 300.337 177.945 299.91 179.028C299.492 180.112 298.761 181.32 297.717 182.653C296.673 183.975 295.222 185.581 293.362 187.47L287.292 193.824V194.048H301.043V198H280.938Z" fill="#222222"/>
<path d="M280.938 198V194.659L291.274 183.95C292.378 182.787 293.288 181.768 294.004 180.893C294.729 180.008 295.271 179.168 295.629 178.372C295.987 177.577 296.166 176.732 296.166 175.837C296.166 174.822 295.928 173.947 295.45 173.212C294.973 172.466 294.322 171.894 293.496 171.496C292.671 171.089 291.741 170.885 290.707 170.885C289.614 170.885 288.659 171.109 287.844 171.556C287.028 172.004 286.402 172.635 285.964 173.45C285.527 174.266 285.308 175.22 285.308 176.314H280.908C280.908 174.455 281.336 172.829 282.191 171.437C283.046 170.045 284.219 168.966 285.711 168.2C287.202 167.425 288.898 167.037 290.797 167.037C292.716 167.037 294.406 167.42 295.868 168.185C297.339 168.941 298.488 169.975 299.313 171.288C300.138 172.59 300.551 174.062 300.551 175.702C300.551 176.836 300.337 177.945 299.91 179.028C299.492 180.112 298.761 181.32 297.717 182.653C296.673 183.975 295.222 185.581 293.362 187.47L287.292 193.824V194.048H301.043V198H280.938Z" fill="#222222"/>
<path d="M280.938 198V194.659L291.274 183.95C292.378 182.787 293.288 181.768 294.004 180.893C294.729 180.008 295.271 179.168 295.629 178.372C295.987 177.577 296.166 176.732 296.166 175.837C296.166 174.822 295.928 173.947 295.45 173.212C294.973 172.466 294.322 171.894 293.496 171.496C292.671 171.089 291.741 170.885 290.707 170.885C289.614 170.885 288.659 171.109 287.844 171.556C287.028 172.004 286.402 172.635 285.964 173.45C285.527 174.266 285.308 175.22 285.308 176.314H280.908C280.908 174.455 281.336 172.829 282.191 171.437C283.046 170.045 284.219 168.966 285.711 168.2C287.202 167.425 288.898 167.037 290.797 167.037C292.716 167.037 294.406 167.42 295.868 168.185C297.339 168.941 298.488 169.975 299.313 171.288C300.138 172.59 300.551 174.062 300.551 175.702C300.551 176.836 300.337 177.945 299.91 179.028C299.492 180.112 298.761 181.32 297.717 182.653C296.673 183.975 295.222 185.581 293.362 187.47L287.292 193.824V194.048H301.043V198H280.938Z" fill="#222222"/>
<circle cx="593" cy="82" r="48.5" fill="white" stroke="#222222" stroke-width="3"/>
<path d="M589.417 73C589.417 83.504 582.459 91.5 574.458 91.5C566.457 91.5 559.5 83.504 559.5 73C559.5 62.496 566.457 54.5 574.458 54.5C582.459 54.5 589.417 62.496 589.417 73Z" fill="white" stroke="#222222" stroke-width="3"/>
<circle cx="582" cy="73" r="5" fill="#222222"/>
<path d="M626.417 73C626.417 83.504 619.459 91.5 611.458 91.5C603.457 91.5 596.5 83.504 596.5 73C596.5 62.496 603.457 54.5 611.458 54.5C619.459 54.5 626.417 62.496 626.417 73Z" fill="white" stroke="#222222" stroke-width="3"/>
<circle cx="604" cy="73" r="5" fill="#222222"/>
<circle cx="593" cy="82" r="48.5" fill="white" stroke="#222222" stroke-width="3"/>
<path d="M589.417 73C589.417 83.504 582.459 91.5 574.458 91.5C566.457 91.5 559.5 83.504 559.5 73C559.5 62.496 566.457 54.5 574.458 54.5C582.459 54.5 589.417 62.496 589.417 73Z" fill="white" stroke="#222222" stroke-width="3"/>
<circle cx="582" cy="73" r="5" fill="#222222"/>
<path d="M626.417 73C626.417 83.504 619.459 91.5 611.458 91.5C603.457 91.5 596.5 83.504 596.5 73C596.5 62.496 603.457 54.5 611.458 54.5C619.459 54.5 626.417 62.496 626.417 73Z" fill="white" stroke="#222222" stroke-width="3"/>
<circle cx="604" cy="73" r="5" fill="#222222"/>
<path d="M274 78.5L276.129 79.0322C283.866 80.9665 292.005 80.5437 299.5 77.8182L304.5 76" stroke="#222222" stroke-width="3" stroke-linecap="round"/>
<path d="M264.5 78.5L262.371 79.0322C254.634 80.9665 246.495 80.5437 239 77.8182L234 76" stroke="#222222" stroke-width="3" stroke-linecap="round"/>
<circle cx="431" cy="82" r="48.5" fill="white" stroke="#222222" stroke-width="3"/>
<path d="M390.5 211.014V159.679L395.578 158.236C404.047 155.829 413.012 155.772 421.511 158.073L427.5 159.694V211.04L422.295 209.631C413.271 207.188 403.751 207.248 394.757 209.804L390.5 211.014Z" fill="white" stroke="#222222" stroke-width="3"/>
<path d="M434.5 211.014V159.679L439.578 158.236C448.047 155.829 457.012 155.772 465.511 158.073L471.5 159.694V211.04L466.295 209.631C457.271 207.188 447.751 207.248 438.757 209.804L434.5 211.014Z" fill="white" stroke="#222222" stroke-width="3"/>
<path d="M408.572 198.418C406.524 198.418 404.695 198.065 403.084 197.359C401.483 196.653 400.215 195.673 399.281 194.42C398.356 193.158 397.859 191.696 397.789 190.036H402.472C402.532 190.94 402.835 191.726 403.382 192.392C403.939 193.048 404.665 193.555 405.56 193.913C406.455 194.271 407.449 194.45 408.543 194.45C409.746 194.45 410.81 194.241 411.734 193.824C412.669 193.406 413.4 192.825 413.927 192.079C414.454 191.323 414.717 190.453 414.717 189.469C414.717 188.445 414.454 187.545 413.927 186.769C413.41 185.984 412.649 185.367 411.645 184.92C410.651 184.472 409.447 184.249 408.036 184.249H405.455V180.49H408.036C409.169 180.49 410.163 180.286 411.018 179.879C411.884 179.471 412.56 178.904 413.047 178.178C413.534 177.442 413.778 176.582 413.778 175.598C413.778 174.653 413.564 173.833 413.136 173.137C412.719 172.431 412.122 171.879 411.347 171.482C410.581 171.084 409.676 170.885 408.632 170.885C407.638 170.885 406.708 171.069 405.843 171.437C404.988 171.795 404.292 172.312 403.755 172.988C403.218 173.654 402.93 174.455 402.89 175.389H398.43C398.48 173.739 398.967 172.287 399.892 171.034C400.827 169.781 402.06 168.802 403.591 168.096C405.122 167.39 406.822 167.037 408.692 167.037C410.651 167.037 412.341 167.42 413.763 168.185C415.195 168.941 416.298 169.95 417.074 171.213C417.859 172.476 418.247 173.858 418.237 175.359C418.247 177.07 417.77 178.521 416.805 179.714C415.851 180.908 414.578 181.708 412.987 182.116V182.354C415.016 182.663 416.587 183.468 417.7 184.771C418.824 186.073 419.381 187.689 419.371 189.618C419.381 191.298 418.913 192.805 417.969 194.137C417.034 195.469 415.756 196.518 414.136 197.284C412.515 198.04 410.661 198.418 408.572 198.418Z" fill="#222222"/>
<path d="M408.572 198.418C406.524 198.418 404.695 198.065 403.084 197.359C401.483 196.653 400.215 195.673 399.281 194.42C398.356 193.158 397.859 191.696 397.789 190.036H402.472C402.532 190.94 402.835 191.726 403.382 192.392C403.939 193.048 404.665 193.555 405.56 193.913C406.455 194.271 407.449 194.45 408.543 194.45C409.746 194.45 410.81 194.241 411.734 193.824C412.669 193.406 413.4 192.825 413.927 192.079C414.454 191.323 414.717 190.453 414.717 189.469C414.717 188.445 414.454 187.545 413.927 186.769C413.41 185.984 412.649 185.367 411.645 184.92C410.651 184.472 409.447 184.249 408.036 184.249H405.455V180.49H408.036C409.169 180.49 410.163 180.286 411.018 179.879C411.884 179.471 412.56 178.904 413.047 178.178C413.534 177.442 413.778 176.582 413.778 175.598C413.778 174.653 413.564 173.833 413.136 173.137C412.719 172.431 412.122 171.879 411.347 171.482C410.581 171.084 409.676 170.885 408.632 170.885C407.638 170.885 406.708 171.069 405.843 171.437C404.988 171.795 404.292 172.312 403.755 172.988C403.218 173.654 402.93 174.455 402.89 175.389H398.43C398.48 173.739 398.967 172.287 399.892 171.034C400.827 169.781 402.06 168.802 403.591 168.096C405.122 167.39 406.822 167.037 408.692 167.037C410.651 167.037 412.341 167.42 413.763 168.185C415.195 168.941 416.298 169.95 417.074 171.213C417.859 172.476 418.247 173.858 418.237 175.359C418.247 177.07 417.77 178.521 416.805 179.714C415.851 180.908 414.578 181.708 412.987 182.116V182.354C415.016 182.663 416.587 183.468 417.7 184.771C418.824 186.073 419.381 187.689 419.371 189.618C419.381 191.298 418.913 192.805 417.969 194.137C417.034 195.469 415.756 196.518 414.136 197.284C412.515 198.04 410.661 198.418 408.572 198.418Z" fill="#222222"/>
<path d="M408.572 198.418C406.524 198.418 404.695 198.065 403.084 197.359C401.483 196.653 400.215 195.673 399.281 194.42C398.356 193.158 397.859 191.696 397.789 190.036H402.472C402.532 190.94 402.835 191.726 403.382 192.392C403.939 193.048 404.665 193.555 405.56 193.913C406.455 194.271 407.449 194.45 408.543 194.45C409.746 194.45 410.81 194.241 411.734 193.824C412.669 193.406 413.4 192.825 413.927 192.079C414.454 191.323 414.717 190.453 414.717 189.469C414.717 188.445 414.454 187.545 413.927 186.769C413.41 185.984 412.649 185.367 411.645 184.92C410.651 184.472 409.447 184.249 408.036 184.249H405.455V180.49H408.036C409.169 180.49 410.163 180.286 411.018 179.879C411.884 179.471 412.56 178.904 413.047 178.178C413.534 177.442 413.778 176.582 413.778 175.598C413.778 174.653 413.564 173.833 413.136 173.137C412.719 172.431 412.122 171.879 411.347 171.482C410.581 171.084 409.676 170.885 408.632 170.885C407.638 170.885 406.708 171.069 405.843 171.437C404.988 171.795 404.292 172.312 403.755 172.988C403.218 173.654 402.93 174.455 402.89 175.389H398.43C398.48 173.739 398.967 172.287 399.892 171.034C400.827 169.781 402.06 168.802 403.591 168.096C405.122 167.39 406.822 167.037 408.692 167.037C410.651 167.037 412.341 167.42 413.763 168.185C415.195 168.941 416.298 169.95 417.074 171.213C417.859 172.476 418.247 173.858 418.237 175.359C418.247 177.07 417.77 178.521 416.805 179.714C415.851 180.908 414.578 181.708 412.987 182.116V182.354C415.016 182.663 416.587 183.468 417.7 184.771C418.824 186.073 419.381 187.689 419.371 189.618C419.381 191.298 418.913 192.805 417.969 194.137C417.034 195.469 415.756 196.518 414.136 197.284C412.515 198.04 410.661 198.418 408.572 198.418Z" fill="#222222"/>
<path d="M408.572 198.418C406.524 198.418 404.695 198.065 403.084 197.359C401.483 196.653 400.215 195.673 399.281 194.42C398.356 193.158 397.859 191.696 397.789 190.036H402.472C402.532 190.94 402.835 191.726 403.382 192.392C403.939 193.048 404.665 193.555 405.56 193.913C406.455 194.271 407.449 194.45 408.543 194.45C409.746 194.45 410.81 194.241 411.734 193.824C412.669 193.406 413.4 192.825 413.927 192.079C414.454 191.323 414.717 190.453 414.717 189.469C414.717 188.445 414.454 187.545 413.927 186.769C413.41 185.984 412.649 185.367 411.645 184.92C410.651 184.472 409.447 184.249 408.036 184.249H405.455V180.49H408.036C409.169 180.49 410.163 180.286 411.018 179.879C411.884 179.471 412.56 178.904 413.047 178.178C413.534 177.442 413.778 176.582 413.778 175.598C413.778 174.653 413.564 173.833 413.136 173.137C412.719 172.431 412.122 171.879 411.347 171.482C410.581 171.084 409.676 170.885 408.632 170.885C407.638 170.885 406.708 171.069 405.843 171.437C404.988 171.795 404.292 172.312 403.755 172.988C403.218 173.654 402.93 174.455 402.89 175.389H398.43C398.48 173.739 398.967 172.287 399.892 171.034C400.827 169.781 402.06 168.802 403.591 168.096C405.122 167.39 406.822 167.037 408.692 167.037C410.651 167.037 412.341 167.42 413.763 168.185C415.195 168.941 416.298 169.95 417.074 171.213C417.859 172.476 418.247 173.858 418.237 175.359C418.247 177.07 417.77 178.521 416.805 179.714C415.851 180.908 414.578 181.708 412.987 182.116V182.354C415.016 182.663 416.587 183.468 417.7 184.771C418.824 186.073 419.381 187.689 419.371 189.618C419.381 191.298 418.913 192.805 417.969 194.137C417.034 195.469 415.756 196.518 414.136 197.284C412.515 198.04 410.661 198.418 408.572 198.418Z" fill="#222222"/>
<path d="M441.297 192.034V188.305L454.496 167.455H457.435V172.943H455.57L446.129 187.888V188.126H464.221V192.034H441.297ZM455.779 198V190.901L455.809 189.2V167.455H460.179V198H455.779Z" fill="#222222"/>
<path d="M441.297 192.034V188.305L454.496 167.455H457.435V172.943H455.57L446.129 187.888V188.126H464.221V192.034H441.297ZM455.779 198V190.901L455.809 189.2V167.455H460.179V198H455.779Z" fill="#222222"/>
<path d="M441.297 192.034V188.305L454.496 167.455H457.435V172.943H455.57L446.129 187.888V188.126H464.221V192.034H441.297ZM455.779 198V190.901L455.809 189.2V167.455H460.179V198H455.779Z" fill="#222222"/>
<path d="M441.297 192.034V188.305L454.496 167.455H457.435V172.943H455.57L446.129 187.888V188.126H464.221V192.034H441.297ZM455.779 198V190.901L455.809 189.2V167.455H460.179V198H455.779Z" fill="#222222"/>
<path d="M552.5 211.014V159.679L557.578 158.236C566.047 155.829 575.012 155.772 583.511 158.073L589.5 159.694V211.04L584.295 209.631C575.271 207.188 565.751 207.248 556.757 209.804L552.5 211.014Z" fill="white" stroke="#222222" stroke-width="3"/>
<path d="M596.5 211.014V159.679L601.578 158.236C610.047 155.829 619.012 155.772 627.511 158.073L633.5 159.694V211.04L628.295 209.631C619.271 207.188 609.751 207.248 600.757 209.804L596.5 211.014Z" fill="white" stroke="#222222" stroke-width="3"/>
<path d="M570.572 198.418C568.524 198.418 566.695 198.065 565.084 197.359C563.483 196.653 562.215 195.673 561.281 194.42C560.356 193.158 559.859 191.696 559.789 190.036H564.472C564.532 190.94 564.835 191.726 565.382 192.392C565.939 193.048 566.665 193.555 567.56 193.913C568.455 194.271 569.449 194.45 570.543 194.45C571.746 194.45 572.81 194.241 573.734 193.824C574.669 193.406 575.4 192.825 575.927 192.079C576.454 191.323 576.717 190.453 576.717 189.469C576.717 188.445 576.454 187.545 575.927 186.769C575.41 185.984 574.649 185.367 573.645 184.92C572.651 184.472 571.447 184.249 570.036 184.249H567.455V180.49H570.036C571.169 180.49 572.163 180.286 573.018 179.879C573.884 179.471 574.56 178.904 575.047 178.178C575.534 177.442 575.778 176.582 575.778 175.598C575.778 174.653 575.564 173.833 575.136 173.137C574.719 172.431 574.122 171.879 573.347 171.482C572.581 171.084 571.676 170.885 570.632 170.885C569.638 170.885 568.708 171.069 567.843 171.437C566.988 171.795 566.292 172.312 565.755 172.988C565.218 173.654 564.93 174.455 564.89 175.389H560.43C560.48 173.739 560.967 172.287 561.892 171.034C562.827 169.781 564.06 168.802 565.591 168.096C567.122 167.39 568.822 167.037 570.692 167.037C572.651 167.037 574.341 167.42 575.763 168.185C577.195 168.941 578.298 169.95 579.074 171.213C579.859 172.476 580.247 173.858 580.237 175.359C580.247 177.07 579.77 178.521 578.805 179.714C577.851 180.908 576.578 181.708 574.987 182.116V182.354C577.016 182.663 578.587 183.468 579.7 184.771C580.824 186.073 581.381 187.689 581.371 189.618C581.381 191.298 580.913 192.805 579.969 194.137C579.034 195.469 577.756 196.518 576.136 197.284C574.515 198.04 572.661 198.418 570.572 198.418Z" fill="#222222"/>
<path d="M570.572 198.418C568.524 198.418 566.695 198.065 565.084 197.359C563.483 196.653 562.215 195.673 561.281 194.42C560.356 193.158 559.859 191.696 559.789 190.036H564.472C564.532 190.94 564.835 191.726 565.382 192.392C565.939 193.048 566.665 193.555 567.56 193.913C568.455 194.271 569.449 194.45 570.543 194.45C571.746 194.45 572.81 194.241 573.734 193.824C574.669 193.406 575.4 192.825 575.927 192.079C576.454 191.323 576.717 190.453 576.717 189.469C576.717 188.445 576.454 187.545 575.927 186.769C575.41 185.984 574.649 185.367 573.645 184.92C572.651 184.472 571.447 184.249 570.036 184.249H567.455V180.49H570.036C571.169 180.49 572.163 180.286 573.018 179.879C573.884 179.471 574.56 178.904 575.047 178.178C575.534 177.442 575.778 176.582 575.778 175.598C575.778 174.653 575.564 173.833 575.136 173.137C574.719 172.431 574.122 171.879 573.347 171.482C572.581 171.084 571.676 170.885 570.632 170.885C569.638 170.885 568.708 171.069 567.843 171.437C566.988 171.795 566.292 172.312 565.755 172.988C565.218 173.654 564.93 174.455 564.89 175.389H560.43C560.48 173.739 560.967 172.287 561.892 171.034C562.827 169.781 564.06 168.802 565.591 168.096C567.122 167.39 568.822 167.037 570.692 167.037C572.651 167.037 574.341 167.42 575.763 168.185C577.195 168.941 578.298 169.95 579.074 171.213C579.859 172.476 580.247 173.858 580.237 175.359C580.247 177.07 579.77 178.521 578.805 179.714C577.851 180.908 576.578 181.708 574.987 182.116V182.354C577.016 182.663 578.587 183.468 579.7 184.771C580.824 186.073 581.381 187.689 581.371 189.618C581.381 191.298 580.913 192.805 579.969 194.137C579.034 195.469 577.756 196.518 576.136 197.284C574.515 198.04 572.661 198.418 570.572 198.418Z" fill="#222222"/>
<path d="M570.572 198.418C568.524 198.418 566.695 198.065 565.084 197.359C563.483 196.653 562.215 195.673 561.281 194.42C560.356 193.158 559.859 191.696 559.789 190.036H564.472C564.532 190.94 564.835 191.726 565.382 192.392C565.939 193.048 566.665 193.555 567.56 193.913C568.455 194.271 569.449 194.45 570.543 194.45C571.746 194.45 572.81 194.241 573.734 193.824C574.669 193.406 575.4 192.825 575.927 192.079C576.454 191.323 576.717 190.453 576.717 189.469C576.717 188.445 576.454 187.545 575.927 186.769C575.41 185.984 574.649 185.367 573.645 184.92C572.651 184.472 571.447 184.249 570.036 184.249H567.455V180.49H570.036C571.169 180.49 572.163 180.286 573.018 179.879C573.884 179.471 574.56 178.904 575.047 178.178C575.534 177.442 575.778 176.582 575.778 175.598C575.778 174.653 575.564 173.833 575.136 173.137C574.719 172.431 574.122 171.879 573.347 171.482C572.581 171.084 571.676 170.885 570.632 170.885C569.638 170.885 568.708 171.069 567.843 171.437C566.988 171.795 566.292 172.312 565.755 172.988C565.218 173.654 564.93 174.455 564.89 175.389H560.43C560.48 173.739 560.967 172.287 561.892 171.034C562.827 169.781 564.06 168.802 565.591 168.096C567.122 167.39 568.822 167.037 570.692 167.037C572.651 167.037 574.341 167.42 575.763 168.185C577.195 168.941 578.298 169.95 579.074 171.213C579.859 172.476 580.247 173.858 580.237 175.359C580.247 177.07 579.77 178.521 578.805 179.714C577.851 180.908 576.578 181.708 574.987 182.116V182.354C577.016 182.663 578.587 183.468 579.7 184.771C580.824 186.073 581.381 187.689 581.371 189.618C581.381 191.298 580.913 192.805 579.969 194.137C579.034 195.469 577.756 196.518 576.136 197.284C574.515 198.04 572.661 198.418 570.572 198.418Z" fill="#222222"/>
<path d="M570.572 198.418C568.524 198.418 566.695 198.065 565.084 197.359C563.483 196.653 562.215 195.673 561.281 194.42C560.356 193.158 559.859 191.696 559.789 190.036H564.472C564.532 190.94 564.835 191.726 565.382 192.392C565.939 193.048 566.665 193.555 567.56 193.913C568.455 194.271 569.449 194.45 570.543 194.45C571.746 194.45 572.81 194.241 573.734 193.824C574.669 193.406 575.4 192.825 575.927 192.079C576.454 191.323 576.717 190.453 576.717 189.469C576.717 188.445 576.454 187.545 575.927 186.769C575.41 185.984 574.649 185.367 573.645 184.92C572.651 184.472 571.447 184.249 570.036 184.249H567.455V180.49H570.036C571.169 180.49 572.163 180.286 573.018 179.879C573.884 179.471 574.56 178.904 575.047 178.178C575.534 177.442 575.778 176.582 575.778 175.598C575.778 174.653 575.564 173.833 575.136 173.137C574.719 172.431 574.122 171.879 573.347 171.482C572.581 171.084 571.676 170.885 570.632 170.885C569.638 170.885 568.708 171.069 567.843 171.437C566.988 171.795 566.292 172.312 565.755 172.988C565.218 173.654 564.93 174.455 564.89 175.389H560.43C560.48 173.739 560.967 172.287 561.892 171.034C562.827 169.781 564.06 168.802 565.591 168.096C567.122 167.39 568.822 167.037 570.692 167.037C572.651 167.037 574.341 167.42 575.763 168.185C577.195 168.941 578.298 169.95 579.074 171.213C579.859 172.476 580.247 173.858 580.237 175.359C580.247 177.07 579.77 178.521 578.805 179.714C577.851 180.908 576.578 181.708 574.987 182.116V182.354C577.016 182.663 578.587 183.468 579.7 184.771C580.824 186.073 581.381 187.689 581.371 189.618C581.381 191.298 580.913 192.805 579.969 194.137C579.034 195.469 577.756 196.518 576.136 197.284C574.515 198.04 572.661 198.418 570.572 198.418Z" fill="#222222"/>
<path d="M603.297 192.034V188.305L616.496 167.455H619.435V172.943H617.57L608.129 187.888V188.126H626.221V192.034H603.297ZM617.779 198V190.901L617.809 189.2V167.455H622.179V198H617.779Z" fill="#222222"/>
<path d="M603.297 192.034V188.305L616.496 167.455H619.435V172.943H617.57L608.129 187.888V188.126H626.221V192.034H603.297ZM617.779 198V190.901L617.809 189.2V167.455H622.179V198H617.779Z" fill="#222222"/>
<path d="M603.297 192.034V188.305L616.496 167.455H619.435V172.943H617.57L608.129 187.888V188.126H626.221V192.034H603.297ZM617.779 198V190.901L617.809 189.2V167.455H622.179V198H617.779Z" fill="#222222"/>
<path d="M603.297 192.034V188.305L616.496 167.455H619.435V172.943H617.57L608.129 187.888V188.126H626.221V192.034H603.297ZM617.779 198V190.901L617.809 189.2V167.455H622.179V198H617.779Z" fill="#222222"/>
<path d="M436 78.5L438.129 79.0322C445.866 80.9665 454.005 80.5437 461.5 77.8182L466.5 76" stroke="#222222" stroke-width="3" stroke-linecap="round"/>
<path d="M426.5 78.5L424.371 79.0322C416.634 80.9665 408.495 80.5437 401 77.8182L396 76" stroke="#222222" stroke-width="3" stroke-linecap="round"/>
<path d="M216 124L191 109.566L191 138.434L216 124ZM163 126.5L193.5 126.5L193.5 121.5L163 121.5L163 126.5Z" fill="#888888"/>
<path d="M539 124L514 109.566L514 138.434L539 124ZM486 126.5L516.5 126.5L516.5 121.5L486 121.5L486 126.5Z" fill="#888888"/>
<path d="M377 124L352 109.566L352 138.434L377 124ZM324 126.5L354.5 126.5L354.5 121.5L324 121.5L324 126.5Z" fill="#888888"/>
<path d="M336.415 68.4187C335.198 68.5311 334.123 68.3325 333.189 67.8231C332.26 67.3132 331.506 66.5177 330.926 65.4367C330.351 64.3552 329.989 63.0224 329.842 61.4384C329.69 59.8595 329.793 58.4915 330.153 57.3343C330.517 56.1766 331.107 55.266 331.923 54.6023C332.744 53.9335 333.76 53.5407 334.971 53.4241C336.182 53.3075 337.252 53.4994 338.18 53.9999C339.113 54.4999 339.868 55.2833 340.447 56.3502C341.025 57.4124 341.387 58.7332 341.535 60.3125C341.688 61.9008 341.583 63.2808 341.22 64.4526C340.862 65.624 340.275 66.5486 339.461 67.2264C338.646 67.9042 337.631 68.3016 336.415 68.4187ZM336.17 65.8807C337 65.8008 337.622 65.32 338.036 64.4381C338.451 63.5562 338.575 62.2813 338.41 60.6134C338.304 59.5152 338.103 58.6118 337.807 57.903C337.515 57.1939 337.146 56.6752 336.701 56.3471C336.26 56.0185 335.764 55.8807 335.212 55.9338C334.388 56.0132 333.768 56.4892 333.352 57.3616C332.937 58.234 332.806 59.4929 332.959 61.1382C333.066 62.2505 333.267 63.1683 333.56 63.8916C333.857 64.6098 334.229 65.1353 334.675 65.4681C335.12 65.7963 335.619 65.9338 336.17 65.8807ZM345.636 67.3952C345.17 67.4401 344.753 67.3137 344.387 67.016C344.025 66.7132 343.821 66.3284 343.776 65.8618C343.732 65.4 343.859 64.9882 344.157 64.6265C344.46 64.2644 344.844 64.0608 345.311 64.0159C345.763 63.9723 346.175 64.0992 346.546 64.3964C346.917 64.6937 347.125 65.0732 347.17 65.5351C347.2 65.8462 347.147 66.139 347.012 66.4137C346.881 66.6831 346.695 66.9079 346.456 67.0879C346.216 67.2633 345.943 67.3657 345.636 67.3952ZM352.856 51.9017L354.251 66.3802L351.189 66.6749L350.075 55.1021L349.99 55.1102L346.875 57.5079L346.613 54.7932L349.979 52.1788L352.856 51.9017ZM362.999 65.7376C362 65.8338 361.091 65.7358 360.273 65.4435C359.46 65.1508 358.794 64.7036 358.275 64.1019C357.755 63.5002 357.446 62.7832 357.347 61.9508L360.316 61.6649C360.403 62.2226 360.683 62.6547 361.155 62.9613C361.626 63.2678 362.164 63.3921 362.767 63.334C363.248 63.2877 363.662 63.1408 364.009 62.8933C364.361 62.6407 364.622 62.3135 364.792 61.9117C364.967 61.5048 365.031 61.0516 364.982 60.552C364.933 60.043 364.782 59.6057 364.528 59.2401C364.279 58.8741 363.955 58.6008 363.557 58.4203C363.159 58.2398 362.717 58.1706 362.231 58.2126C361.807 58.2535 361.403 58.3804 361.019 58.5933C360.64 58.8058 360.354 59.0735 360.162 59.3965L357.393 59.1708L357.344 51.4696L366.195 50.6173L366.436 53.12L360.109 53.7292L360.083 57.392L360.168 57.3838C360.388 57.0011 360.744 56.6672 361.235 56.3821C361.726 56.097 362.289 55.9238 362.926 55.8625C363.797 55.7786 364.595 55.9087 365.318 56.2529C366.041 56.5972 366.634 57.1084 367.099 57.7867C367.564 58.4602 367.838 59.2615 367.923 60.1904C368.022 61.1655 367.879 62.0545 367.495 62.8574C367.115 63.655 366.538 64.3099 365.765 64.822C364.995 65.3289 364.073 65.6342 362.999 65.7376ZM343.275 77.6859L340.535 78.121C340.465 77.8899 340.343 77.6876 340.169 77.514C339.995 77.3358 339.775 77.2023 339.51 77.1137C339.249 77.02 338.944 76.9899 338.595 77.0234C338.129 77.0684 337.745 77.2052 337.443 77.434C337.141 77.6581 337.006 77.9328 337.037 78.258C337.062 78.5172 337.187 78.7264 337.412 78.8855C337.636 79.0446 338.006 79.1541 338.521 79.214L340.524 79.4206C341.601 79.5358 342.421 79.8087 342.986 80.2395C343.551 80.6704 343.871 81.2769 343.946 82.0593C344.015 82.771 343.865 83.4157 343.497 83.9933C343.134 84.5706 342.605 85.0449 341.908 85.4165C341.215 85.7828 340.398 86.0114 339.455 86.1021C338.018 86.2405 336.844 86.0515 335.933 85.5351C335.026 85.0135 334.45 84.2414 334.204 83.2186L337.151 82.7778C337.283 83.2075 337.532 83.5212 337.899 83.7191C338.264 83.9121 338.716 83.9828 339.253 83.9311C339.781 83.8803 340.196 83.7381 340.496 83.5046C340.802 83.2659 340.941 82.9837 340.914 82.6581C340.883 82.3852 340.746 82.1724 340.503 82.0198C340.26 81.8625 339.898 81.7594 339.418 81.7105L337.501 81.5169C336.42 81.4069 335.595 81.1153 335.026 80.6421C334.462 80.1684 334.141 79.5262 334.063 78.7156C333.996 78.0181 334.127 77.399 334.455 76.8584C334.788 76.3173 335.286 75.877 335.948 75.5374C336.614 75.1973 337.412 74.9826 338.34 74.8932C339.712 74.7611 340.819 74.9471 341.662 75.451C342.509 75.9544 343.047 76.6994 343.275 77.6859ZM351.136 84.9774C350.019 85.085 349.036 84.9513 348.186 84.5765C347.341 84.1965 346.661 83.6102 346.147 82.8178C345.633 82.0206 345.321 81.0494 345.21 79.9041C345.103 78.7871 345.225 77.7859 345.578 76.9005C345.93 76.0151 346.477 75.2989 347.219 74.7518C347.965 74.2043 348.871 73.8792 349.936 73.7766C350.652 73.7077 351.33 73.7589 351.97 73.9304C352.614 74.0967 353.189 74.3862 353.695 74.7989C354.205 75.2112 354.624 75.7512 354.95 76.4191C355.275 77.0822 355.482 77.8757 355.571 78.7994L355.651 79.6266L346.482 80.5095L346.302 78.6431L352.636 78.0332C352.595 77.5996 352.463 77.2245 352.243 76.9081C352.022 76.5916 351.735 76.3552 351.382 76.1989C351.034 76.0374 350.64 75.9778 350.202 76.02C349.745 76.064 349.35 76.2091 349.017 76.4552C348.688 76.6962 348.442 77.0029 348.278 77.3755C348.113 77.7433 348.049 78.1419 348.086 78.5712L348.257 80.3457C348.309 80.883 348.452 81.3377 348.688 81.7098C348.928 82.0815 349.242 82.3556 349.63 82.5323C350.018 82.709 350.465 82.7731 350.969 82.7245C351.303 82.6923 351.605 82.6157 351.874 82.4946C352.143 82.3736 352.368 82.2093 352.547 82.0017C352.727 81.7941 352.856 81.5487 352.933 81.2653L355.736 81.1809C355.659 81.8638 355.426 82.4761 355.036 83.0179C354.65 83.5545 354.126 83.995 353.465 84.3393C352.808 84.6785 352.031 84.8912 351.136 84.9774ZM362.992 83.8358C361.879 83.9429 360.9 83.7994 360.053 83.4053C359.211 83.0059 358.535 82.4051 358.025 81.6028C357.519 80.8 357.214 79.8495 357.108 78.7514C357.001 77.6391 357.121 76.6428 357.469 75.7626C357.822 74.8772 358.373 74.1605 359.125 73.6125C359.875 73.0598 360.8 72.7306 361.898 72.6249C362.845 72.5336 363.691 72.6258 364.436 72.9013C365.181 73.1768 365.79 73.6057 366.265 74.1879C366.74 74.7701 367.039 75.4786 367.162 76.3134L364.32 76.5871C364.188 76.0528 363.934 75.6373 363.558 75.3405C363.186 75.0385 362.725 74.9141 362.173 74.9672C361.707 75.0121 361.311 75.1786 360.987 75.4667C360.667 75.7496 360.433 76.1408 360.287 76.6401C360.14 77.1394 360.099 77.7308 360.165 78.4142C360.232 79.107 360.383 79.6871 360.618 80.1544C360.858 80.6212 361.164 80.9651 361.538 81.186C361.911 81.4069 362.331 81.4949 362.797 81.45C363.142 81.4169 363.443 81.3164 363.703 81.1487C363.968 80.9806 364.176 80.7535 364.33 80.4676C364.487 80.1766 364.576 79.8375 364.596 79.4503L367.438 79.1766C367.47 80.0106 367.314 80.7629 366.97 81.4335C366.63 82.0989 366.123 82.6424 365.45 83.064C364.777 83.4855 363.958 83.7428 362.992 83.8358Z" fill="#888888"/>
</svg>
