<svg width="700" height="250" viewBox="0 0 700 250" fill="none" xmlns="http://www.w3.org/2000/svg">
<circle cx="107" cy="82" r="48.5" fill="white" stroke="#222222" stroke-width="3"/>
<path d="M103.417 73C103.417 83.504 96.4594 91.5 88.4583 91.5C80.4573 91.5 73.5 83.504 73.5 73C73.5 62.496 80.4573 54.5 88.4583 54.5C96.4594 54.5 103.417 62.496 103.417 73Z" fill="white" stroke="#222222" stroke-width="3"/>
<circle cx="96" cy="73" r="5" fill="#222222"/>
<path d="M140.417 73C140.417 83.504 133.459 91.5 125.458 91.5C117.457 91.5 110.5 83.504 110.5 73C110.5 62.496 117.457 54.5 125.458 54.5C133.459 54.5 140.417 62.496 140.417 73Z" fill="white" stroke="#222222" stroke-width="3"/>
<circle cx="118" cy="73" r="5" fill="#222222"/>
<circle cx="107" cy="82" r="48.5" fill="white" stroke="#222222" stroke-width="3"/>
<path d="M103.417 73C103.417 83.504 96.4594 91.5 88.4583 91.5C80.4573 91.5 73.5 83.504 73.5 73C73.5 62.496 80.4573 54.5 88.4583 54.5C96.4594 54.5 103.417 62.496 103.417 73Z" fill="white" stroke="#222222" stroke-width="3"/>
<circle cx="96" cy="73" r="5" fill="#222222"/>
<path d="M140.417 73C140.417 83.504 133.459 91.5 125.458 91.5C117.457 91.5 110.5 83.504 110.5 73C110.5 62.496 117.457 54.5 125.458 54.5C133.459 54.5 140.417 62.496 140.417 73Z" fill="white" stroke="#222222" stroke-width="3"/>
<circle cx="118" cy="73" r="5" fill="#222222"/>
<circle cx="269" cy="82" r="48.5" fill="white" stroke="#222222" stroke-width="3"/>
<path d="M66.5 211.014V159.679L71.5777 158.236C80.0472 155.829 89.0123 155.772 97.5114 158.073L103.5 159.694V211.04L98.2954 209.631C89.2705 207.188 79.7509 207.248 70.7575 209.804L66.5 211.014Z" fill="white" stroke="#222222" stroke-width="3"/>
<path d="M110.5 211.014V159.679L115.578 158.236C124.047 155.829 133.012 155.772 141.511 158.073L147.5 159.694V211.04L142.295 209.631C133.271 207.188 123.751 207.248 114.757 209.804L110.5 211.014Z" fill="white" stroke="#222222" stroke-width="3"/>
<path d="M89.527 167.455V198H84.9034V172.078H84.7244L77.4162 176.851V172.436L85.0376 167.455H89.527Z" fill="#222222"/>
<path d="M89.527 167.455V198H84.9034V172.078H84.7244L77.4162 176.851V172.436L85.0376 167.455H89.527Z" fill="#222222"/>
<path d="M89.527 167.455V198H84.9034V172.078H84.7244L77.4162 176.851V172.436L85.0376 167.455H89.527Z" fill="#222222"/>
<path d="M89.527 167.455V198H84.9034V172.078H84.7244L77.4162 176.851V172.436L85.0376 167.455H89.527Z" fill="#222222"/>
<path d="M118.938 198V194.659L129.274 183.95C130.378 182.787 131.288 181.768 132.004 180.893C132.729 180.008 133.271 179.168 133.629 178.372C133.987 177.577 134.166 176.732 134.166 175.837C134.166 174.822 133.928 173.947 133.45 173.212C132.973 172.466 132.322 171.894 131.496 171.496C130.671 171.089 129.741 170.885 128.707 170.885C127.614 170.885 126.659 171.109 125.844 171.556C125.028 172.004 124.402 172.635 123.964 173.45C123.527 174.266 123.308 175.22 123.308 176.314H118.908C118.908 174.455 119.336 172.829 120.191 171.437C121.046 170.045 122.219 168.966 123.711 168.2C125.202 167.425 126.898 167.037 128.797 167.037C130.716 167.037 132.406 167.42 133.868 168.185C135.339 168.941 136.488 169.975 137.313 171.288C138.138 172.59 138.551 174.062 138.551 175.702C138.551 176.836 138.337 177.945 137.91 179.028C137.492 180.112 136.761 181.32 135.717 182.653C134.673 183.975 133.222 185.581 131.362 187.47L125.292 193.824V194.048H139.043V198H118.938Z" fill="#222222"/>
<path d="M118.938 198V194.659L129.274 183.95C130.378 182.787 131.288 181.768 132.004 180.893C132.729 180.008 133.271 179.168 133.629 178.372C133.987 177.577 134.166 176.732 134.166 175.837C134.166 174.822 133.928 173.947 133.45 173.212C132.973 172.466 132.322 171.894 131.496 171.496C130.671 171.089 129.741 170.885 128.707 170.885C127.614 170.885 126.659 171.109 125.844 171.556C125.028 172.004 124.402 172.635 123.964 173.45C123.527 174.266 123.308 175.22 123.308 176.314H118.908C118.908 174.455 119.336 172.829 120.191 171.437C121.046 170.045 122.219 168.966 123.711 168.2C125.202 167.425 126.898 167.037 128.797 167.037C130.716 167.037 132.406 167.42 133.868 168.185C135.339 168.941 136.488 169.975 137.313 171.288C138.138 172.59 138.551 174.062 138.551 175.702C138.551 176.836 138.337 177.945 137.91 179.028C137.492 180.112 136.761 181.32 135.717 182.653C134.673 183.975 133.222 185.581 131.362 187.47L125.292 193.824V194.048H139.043V198H118.938Z" fill="#222222"/>
<path d="M118.938 198V194.659L129.274 183.95C130.378 182.787 131.288 181.768 132.004 180.893C132.729 180.008 133.271 179.168 133.629 178.372C133.987 177.577 134.166 176.732 134.166 175.837C134.166 174.822 133.928 173.947 133.45 173.212C132.973 172.466 132.322 171.894 131.496 171.496C130.671 171.089 129.741 170.885 128.707 170.885C127.614 170.885 126.659 171.109 125.844 171.556C125.028 172.004 124.402 172.635 123.964 173.45C123.527 174.266 123.308 175.22 123.308 176.314H118.908C118.908 174.455 119.336 172.829 120.191 171.437C121.046 170.045 122.219 168.966 123.711 168.2C125.202 167.425 126.898 167.037 128.797 167.037C130.716 167.037 132.406 167.42 133.868 168.185C135.339 168.941 136.488 169.975 137.313 171.288C138.138 172.59 138.551 174.062 138.551 175.702C138.551 176.836 138.337 177.945 137.91 179.028C137.492 180.112 136.761 181.32 135.717 182.653C134.673 183.975 133.222 185.581 131.362 187.47L125.292 193.824V194.048H139.043V198H118.938Z" fill="#222222"/>
<path d="M118.938 198V194.659L129.274 183.95C130.378 182.787 131.288 181.768 132.004 180.893C132.729 180.008 133.271 179.168 133.629 178.372C133.987 177.577 134.166 176.732 134.166 175.837C134.166 174.822 133.928 173.947 133.45 173.212C132.973 172.466 132.322 171.894 131.496 171.496C130.671 171.089 129.741 170.885 128.707 170.885C127.614 170.885 126.659 171.109 125.844 171.556C125.028 172.004 124.402 172.635 123.964 173.45C123.527 174.266 123.308 175.22 123.308 176.314H118.908C118.908 174.455 119.336 172.829 120.191 171.437C121.046 170.045 122.219 168.966 123.711 168.2C125.202 167.425 126.898 167.037 128.797 167.037C130.716 167.037 132.406 167.42 133.868 168.185C135.339 168.941 136.488 169.975 137.313 171.288C138.138 172.59 138.551 174.062 138.551 175.702C138.551 176.836 138.337 177.945 137.91 179.028C137.492 180.112 136.761 181.32 135.717 182.653C134.673 183.975 133.222 185.581 131.362 187.47L125.292 193.824V194.048H139.043V198H118.938Z" fill="#222222"/>
<path d="M228.5 211.014V159.679L233.578 158.236C242.047 155.829 251.012 155.772 259.511 158.073L265.5 159.694V211.04L260.295 209.631C251.271 207.188 241.751 207.248 232.757 209.804L228.5 211.014Z" fill="white" stroke="#222222" stroke-width="3"/>
<path d="M272.5 211.014V159.679L277.578 158.236C286.047 155.829 295.012 155.772 303.511 158.073L309.5 159.694V211.04L304.295 209.631C295.271 207.188 285.751 207.248 276.757 209.804L272.5 211.014Z" fill="white" stroke="#222222" stroke-width="3"/>
<path d="M251.527 167.455V198H246.903V172.078H246.724L239.416 176.851V172.436L247.038 167.455H251.527Z" fill="#222222"/>
<path d="M251.527 167.455V198H246.903V172.078H246.724L239.416 176.851V172.436L247.038 167.455H251.527Z" fill="#222222"/>
<path d="M251.527 167.455V198H246.903V172.078H246.724L239.416 176.851V172.436L247.038 167.455H251.527Z" fill="#222222"/>
<path d="M251.527 167.455V198H246.903V172.078H246.724L239.416 176.851V172.436L247.038 167.455H251.527Z" fill="#222222"/>
<path d="M280.938 198V194.659L291.274 183.95C292.378 182.787 293.288 181.768 294.004 180.893C294.729 180.008 295.271 179.168 295.629 178.372C295.987 177.577 296.166 176.732 296.166 175.837C296.166 174.822 295.928 173.947 295.45 173.212C294.973 172.466 294.322 171.894 293.496 171.496C292.671 171.089 291.741 170.885 290.707 170.885C289.614 170.885 288.659 171.109 287.844 171.556C287.028 172.004 286.402 172.635 285.964 173.45C285.527 174.266 285.308 175.22 285.308 176.314H280.908C280.908 174.455 281.336 172.829 282.191 171.437C283.046 170.045 284.219 168.966 285.711 168.2C287.202 167.425 288.898 167.037 290.797 167.037C292.716 167.037 294.406 167.42 295.868 168.185C297.339 168.941 298.488 169.975 299.313 171.288C300.138 172.59 300.551 174.062 300.551 175.702C300.551 176.836 300.337 177.945 299.91 179.028C299.492 180.112 298.761 181.32 297.717 182.653C296.673 183.975 295.222 185.581 293.362 187.47L287.292 193.824V194.048H301.043V198H280.938Z" fill="#222222"/>
<path d="M280.938 198V194.659L291.274 183.95C292.378 182.787 293.288 181.768 294.004 180.893C294.729 180.008 295.271 179.168 295.629 178.372C295.987 177.577 296.166 176.732 296.166 175.837C296.166 174.822 295.928 173.947 295.45 173.212C294.973 172.466 294.322 171.894 293.496 171.496C292.671 171.089 291.741 170.885 290.707 170.885C289.614 170.885 288.659 171.109 287.844 171.556C287.028 172.004 286.402 172.635 285.964 173.45C285.527 174.266 285.308 175.22 285.308 176.314H280.908C280.908 174.455 281.336 172.829 282.191 171.437C283.046 170.045 284.219 168.966 285.711 168.2C287.202 167.425 288.898 167.037 290.797 167.037C292.716 167.037 294.406 167.42 295.868 168.185C297.339 168.941 298.488 169.975 299.313 171.288C300.138 172.59 300.551 174.062 300.551 175.702C300.551 176.836 300.337 177.945 299.91 179.028C299.492 180.112 298.761 181.32 297.717 182.653C296.673 183.975 295.222 185.581 293.362 187.47L287.292 193.824V194.048H301.043V198H280.938Z" fill="#222222"/>
<path d="M280.938 198V194.659L291.274 183.95C292.378 182.787 293.288 181.768 294.004 180.893C294.729 180.008 295.271 179.168 295.629 178.372C295.987 177.577 296.166 176.732 296.166 175.837C296.166 174.822 295.928 173.947 295.45 173.212C294.973 172.466 294.322 171.894 293.496 171.496C292.671 171.089 291.741 170.885 290.707 170.885C289.614 170.885 288.659 171.109 287.844 171.556C287.028 172.004 286.402 172.635 285.964 173.45C285.527 174.266 285.308 175.22 285.308 176.314H280.908C280.908 174.455 281.336 172.829 282.191 171.437C283.046 170.045 284.219 168.966 285.711 168.2C287.202 167.425 288.898 167.037 290.797 167.037C292.716 167.037 294.406 167.42 295.868 168.185C297.339 168.941 298.488 169.975 299.313 171.288C300.138 172.59 300.551 174.062 300.551 175.702C300.551 176.836 300.337 177.945 299.91 179.028C299.492 180.112 298.761 181.32 297.717 182.653C296.673 183.975 295.222 185.581 293.362 187.47L287.292 193.824V194.048H301.043V198H280.938Z" fill="#222222"/>
<path d="M280.938 198V194.659L291.274 183.95C292.378 182.787 293.288 181.768 294.004 180.893C294.729 180.008 295.271 179.168 295.629 178.372C295.987 177.577 296.166 176.732 296.166 175.837C296.166 174.822 295.928 173.947 295.45 173.212C294.973 172.466 294.322 171.894 293.496 171.496C292.671 171.089 291.741 170.885 290.707 170.885C289.614 170.885 288.659 171.109 287.844 171.556C287.028 172.004 286.402 172.635 285.964 173.45C285.527 174.266 285.308 175.22 285.308 176.314H280.908C280.908 174.455 281.336 172.829 282.191 171.437C283.046 170.045 284.219 168.966 285.711 168.2C287.202 167.425 288.898 167.037 290.797 167.037C292.716 167.037 294.406 167.42 295.868 168.185C297.339 168.941 298.488 169.975 299.313 171.288C300.138 172.59 300.551 174.062 300.551 175.702C300.551 176.836 300.337 177.945 299.91 179.028C299.492 180.112 298.761 181.32 297.717 182.653C296.673 183.975 295.222 185.581 293.362 187.47L287.292 193.824V194.048H301.043V198H280.938Z" fill="#222222"/>
<circle cx="593" cy="82" r="48.5" fill="white" stroke="#222222" stroke-width="3"/>
<path d="M589.417 73C589.417 83.504 582.459 91.5 574.458 91.5C566.457 91.5 559.5 83.504 559.5 73C559.5 62.496 566.457 54.5 574.458 54.5C582.459 54.5 589.417 62.496 589.417 73Z" fill="white" stroke="#222222" stroke-width="3"/>
<circle cx="582" cy="73" r="5" fill="#222222"/>
<path d="M626.417 73C626.417 83.504 619.459 91.5 611.458 91.5C603.457 91.5 596.5 83.504 596.5 73C596.5 62.496 603.457 54.5 611.458 54.5C619.459 54.5 626.417 62.496 626.417 73Z" fill="white" stroke="#222222" stroke-width="3"/>
<circle cx="604" cy="73" r="5" fill="#222222"/>
<circle cx="593" cy="82" r="48.5" fill="white" stroke="#222222" stroke-width="3"/>
<path d="M589.417 73C589.417 83.504 582.459 91.5 574.458 91.5C566.457 91.5 559.5 83.504 559.5 73C559.5 62.496 566.457 54.5 574.458 54.5C582.459 54.5 589.417 62.496 589.417 73Z" fill="white" stroke="#222222" stroke-width="3"/>
<circle cx="582" cy="73" r="5" fill="#222222"/>
<path d="M626.417 73C626.417 83.504 619.459 91.5 611.458 91.5C603.457 91.5 596.5 83.504 596.5 73C596.5 62.496 603.457 54.5 611.458 54.5C619.459 54.5 626.417 62.496 626.417 73Z" fill="white" stroke="#222222" stroke-width="3"/>
<circle cx="604" cy="73" r="5" fill="#222222"/>
<path d="M274 78.5L276.129 79.0322C283.866 80.9665 292.005 80.5437 299.5 77.8182L304.5 76" stroke="#222222" stroke-width="3" stroke-linecap="round"/>
<path d="M264.5 78.5L262.371 79.0322C254.634 80.9665 246.495 80.5437 239 77.8182L234 76" stroke="#222222" stroke-width="3" stroke-linecap="round"/>
<circle cx="431" cy="82" r="48.5" fill="white" stroke="#222222" stroke-width="3"/>
<path d="M390.5 211.014V159.679L395.578 158.236C404.047 155.829 413.012 155.772 421.511 158.073L427.5 159.694V211.04L422.295 209.631C413.271 207.188 403.751 207.248 394.757 209.804L390.5 211.014Z" fill="white" stroke="#222222" stroke-width="3"/>
<path d="M434.5 211.014V159.679L439.578 158.236C448.047 155.829 457.012 155.772 465.511 158.073L471.5 159.694V211.04L466.295 209.631C457.271 207.188 447.751 207.248 438.757 209.804L434.5 211.014Z" fill="white" stroke="#222222" stroke-width="3"/>
<path d="M408.572 198.418C406.524 198.418 404.695 198.065 403.084 197.359C401.483 196.653 400.215 195.673 399.281 194.42C398.356 193.158 397.859 191.696 397.789 190.036H402.472C402.532 190.94 402.835 191.726 403.382 192.392C403.939 193.048 404.665 193.555 405.56 193.913C406.455 194.271 407.449 194.45 408.543 194.45C409.746 194.45 410.81 194.241 411.734 193.824C412.669 193.406 413.4 192.825 413.927 192.079C414.454 191.323 414.717 190.453 414.717 189.469C414.717 188.445 414.454 187.545 413.927 186.769C413.41 185.984 412.649 185.367 411.645 184.92C410.651 184.472 409.447 184.249 408.036 184.249H405.455V180.49H408.036C409.169 180.49 410.163 180.286 411.018 179.879C411.884 179.471 412.56 178.904 413.047 178.178C413.534 177.442 413.778 176.582 413.778 175.598C413.778 174.653 413.564 173.833 413.136 173.137C412.719 172.431 412.122 171.879 411.347 171.482C410.581 171.084 409.676 170.885 408.632 170.885C407.638 170.885 406.708 171.069 405.843 171.437C404.988 171.795 404.292 172.312 403.755 172.988C403.218 173.654 402.93 174.455 402.89 175.389H398.43C398.48 173.739 398.967 172.287 399.892 171.034C400.827 169.781 402.06 168.802 403.591 168.096C405.122 167.39 406.822 167.037 408.692 167.037C410.651 167.037 412.341 167.42 413.763 168.185C415.195 168.941 416.298 169.95 417.074 171.213C417.859 172.476 418.247 173.858 418.237 175.359C418.247 177.07 417.77 178.521 416.805 179.714C415.851 180.908 414.578 181.708 412.987 182.116V182.354C415.016 182.663 416.587 183.468 417.7 184.771C418.824 186.073 419.381 187.689 419.371 189.618C419.381 191.298 418.913 192.805 417.969 194.137C417.034 195.469 415.756 196.518 414.136 197.284C412.515 198.04 410.661 198.418 408.572 198.418Z" fill="#222222"/>
<path d="M408.572 198.418C406.524 198.418 404.695 198.065 403.084 197.359C401.483 196.653 400.215 195.673 399.281 194.42C398.356 193.158 397.859 191.696 397.789 190.036H402.472C402.532 190.94 402.835 191.726 403.382 192.392C403.939 193.048 404.665 193.555 405.56 193.913C406.455 194.271 407.449 194.45 408.543 194.45C409.746 194.45 410.81 194.241 411.734 193.824C412.669 193.406 413.4 192.825 413.927 192.079C414.454 191.323 414.717 190.453 414.717 189.469C414.717 188.445 414.454 187.545 413.927 186.769C413.41 185.984 412.649 185.367 411.645 184.92C410.651 184.472 409.447 184.249 408.036 184.249H405.455V180.49H408.036C409.169 180.49 410.163 180.286 411.018 179.879C411.884 179.471 412.56 178.904 413.047 178.178C413.534 177.442 413.778 176.582 413.778 175.598C413.778 174.653 413.564 173.833 413.136 173.137C412.719 172.431 412.122 171.879 411.347 171.482C410.581 171.084 409.676 170.885 408.632 170.885C407.638 170.885 406.708 171.069 405.843 171.437C404.988 171.795 404.292 172.312 403.755 172.988C403.218 173.654 402.93 174.455 402.89 175.389H398.43C398.48 173.739 398.967 172.287 399.892 171.034C400.827 169.781 402.06 168.802 403.591 168.096C405.122 167.39 406.822 167.037 408.692 167.037C410.651 167.037 412.341 167.42 413.763 168.185C415.195 168.941 416.298 169.95 417.074 171.213C417.859 172.476 418.247 173.858 418.237 175.359C418.247 177.07 417.77 178.521 416.805 179.714C415.851 180.908 414.578 181.708 412.987 182.116V182.354C415.016 182.663 416.587 183.468 417.7 184.771C418.824 186.073 419.381 187.689 419.371 189.618C419.381 191.298 418.913 192.805 417.969 194.137C417.034 195.469 415.756 196.518 414.136 197.284C412.515 198.04 410.661 198.418 408.572 198.418Z" fill="#222222"/>
<path d="M408.572 198.418C406.524 198.418 404.695 198.065 403.084 197.359C401.483 196.653 400.215 195.673 399.281 194.42C398.356 193.158 397.859 191.696 397.789 190.036H402.472C402.532 190.94 402.835 191.726 403.382 192.392C403.939 193.048 404.665 193.555 405.56 193.913C406.455 194.271 407.449 194.45 408.543 194.45C409.746 194.45 410.81 194.241 411.734 193.824C412.669 193.406 413.4 192.825 413.927 192.079C414.454 191.323 414.717 190.453 414.717 189.469C414.717 188.445 414.454 187.545 413.927 186.769C413.41 185.984 412.649 185.367 411.645 184.92C410.651 184.472 409.447 184.249 408.036 184.249H405.455V180.49H408.036C409.169 180.49 410.163 180.286 411.018 179.879C411.884 179.471 412.56 178.904 413.047 178.178C413.534 177.442 413.778 176.582 413.778 175.598C413.778 174.653 413.564 173.833 413.136 173.137C412.719 172.431 412.122 171.879 411.347 171.482C410.581 171.084 409.676 170.885 408.632 170.885C407.638 170.885 406.708 171.069 405.843 171.437C404.988 171.795 404.292 172.312 403.755 172.988C403.218 173.654 402.93 174.455 402.89 175.389H398.43C398.48 173.739 398.967 172.287 399.892 171.034C400.827 169.781 402.06 168.802 403.591 168.096C405.122 167.39 406.822 167.037 408.692 167.037C410.651 167.037 412.341 167.42 413.763 168.185C415.195 168.941 416.298 169.95 417.074 171.213C417.859 172.476 418.247 173.858 418.237 175.359C418.247 177.07 417.77 178.521 416.805 179.714C415.851 180.908 414.578 181.708 412.987 182.116V182.354C415.016 182.663 416.587 183.468 417.7 184.771C418.824 186.073 419.381 187.689 419.371 189.618C419.381 191.298 418.913 192.805 417.969 194.137C417.034 195.469 415.756 196.518 414.136 197.284C412.515 198.04 410.661 198.418 408.572 198.418Z" fill="#222222"/>
<path d="M408.572 198.418C406.524 198.418 404.695 198.065 403.084 197.359C401.483 196.653 400.215 195.673 399.281 194.42C398.356 193.158 397.859 191.696 397.789 190.036H402.472C402.532 190.94 402.835 191.726 403.382 192.392C403.939 193.048 404.665 193.555 405.56 193.913C406.455 194.271 407.449 194.45 408.543 194.45C409.746 194.45 410.81 194.241 411.734 193.824C412.669 193.406 413.4 192.825 413.927 192.079C414.454 191.323 414.717 190.453 414.717 189.469C414.717 188.445 414.454 187.545 413.927 186.769C413.41 185.984 412.649 185.367 411.645 184.92C410.651 184.472 409.447 184.249 408.036 184.249H405.455V180.49H408.036C409.169 180.49 410.163 180.286 411.018 179.879C411.884 179.471 412.56 178.904 413.047 178.178C413.534 177.442 413.778 176.582 413.778 175.598C413.778 174.653 413.564 173.833 413.136 173.137C412.719 172.431 412.122 171.879 411.347 171.482C410.581 171.084 409.676 170.885 408.632 170.885C407.638 170.885 406.708 171.069 405.843 171.437C404.988 171.795 404.292 172.312 403.755 172.988C403.218 173.654 402.93 174.455 402.89 175.389H398.43C398.48 173.739 398.967 172.287 399.892 171.034C400.827 169.781 402.06 168.802 403.591 168.096C405.122 167.39 406.822 167.037 408.692 167.037C410.651 167.037 412.341 167.42 413.763 168.185C415.195 168.941 416.298 169.95 417.074 171.213C417.859 172.476 418.247 173.858 418.237 175.359C418.247 177.07 417.77 178.521 416.805 179.714C415.851 180.908 414.578 181.708 412.987 182.116V182.354C415.016 182.663 416.587 183.468 417.7 184.771C418.824 186.073 419.381 187.689 419.371 189.618C419.381 191.298 418.913 192.805 417.969 194.137C417.034 195.469 415.756 196.518 414.136 197.284C412.515 198.04 410.661 198.418 408.572 198.418Z" fill="#222222"/>
<path d="M441.297 192.034V188.305L454.496 167.455H457.435V172.943H455.57L446.129 187.888V188.126H464.221V192.034H441.297ZM455.779 198V190.901L455.809 189.2V167.455H460.179V198H455.779Z" fill="#222222"/>
<path d="M441.297 192.034V188.305L454.496 167.455H457.435V172.943H455.57L446.129 187.888V188.126H464.221V192.034H441.297ZM455.779 198V190.901L455.809 189.2V167.455H460.179V198H455.779Z" fill="#222222"/>
<path d="M441.297 192.034V188.305L454.496 167.455H457.435V172.943H455.57L446.129 187.888V188.126H464.221V192.034H441.297ZM455.779 198V190.901L455.809 189.2V167.455H460.179V198H455.779Z" fill="#222222"/>
<path d="M441.297 192.034V188.305L454.496 167.455H457.435V172.943H455.57L446.129 187.888V188.126H464.221V192.034H441.297ZM455.779 198V190.901L455.809 189.2V167.455H460.179V198H455.779Z" fill="#222222"/>
<path d="M552.5 211.014V159.679L557.578 158.236C566.047 155.829 575.012 155.772 583.511 158.073L589.5 159.694V211.04L584.295 209.631C575.271 207.188 565.751 207.248 556.757 209.804L552.5 211.014Z" fill="white" stroke="#222222" stroke-width="3"/>
<path d="M596.5 211.014V159.679L601.578 158.236C610.047 155.829 619.012 155.772 627.511 158.073L633.5 159.694V211.04L628.295 209.631C619.271 207.188 609.751 207.248 600.757 209.804L596.5 211.014Z" fill="white" stroke="#222222" stroke-width="3"/>
<path d="M570.572 198.418C568.524 198.418 566.695 198.065 565.084 197.359C563.483 196.653 562.215 195.673 561.281 194.42C560.356 193.158 559.859 191.696 559.789 190.036H564.472C564.532 190.94 564.835 191.726 565.382 192.392C565.939 193.048 566.665 193.555 567.56 193.913C568.455 194.271 569.449 194.45 570.543 194.45C571.746 194.45 572.81 194.241 573.734 193.824C574.669 193.406 575.4 192.825 575.927 192.079C576.454 191.323 576.717 190.453 576.717 189.469C576.717 188.445 576.454 187.545 575.927 186.769C575.41 185.984 574.649 185.367 573.645 184.92C572.651 184.472 571.447 184.249 570.036 184.249H567.455V180.49H570.036C571.169 180.49 572.163 180.286 573.018 179.879C573.884 179.471 574.56 178.904 575.047 178.178C575.534 177.442 575.778 176.582 575.778 175.598C575.778 174.653 575.564 173.833 575.136 173.137C574.719 172.431 574.122 171.879 573.347 171.482C572.581 171.084 571.676 170.885 570.632 170.885C569.638 170.885 568.708 171.069 567.843 171.437C566.988 171.795 566.292 172.312 565.755 172.988C565.218 173.654 564.93 174.455 564.89 175.389H560.43C560.48 173.739 560.967 172.287 561.892 171.034C562.827 169.781 564.06 168.802 565.591 168.096C567.122 167.39 568.822 167.037 570.692 167.037C572.651 167.037 574.341 167.42 575.763 168.185C577.195 168.941 578.298 169.95 579.074 171.213C579.859 172.476 580.247 173.858 580.237 175.359C580.247 177.07 579.77 178.521 578.805 179.714C577.851 180.908 576.578 181.708 574.987 182.116V182.354C577.016 182.663 578.587 183.468 579.7 184.771C580.824 186.073 581.381 187.689 581.371 189.618C581.381 191.298 580.913 192.805 579.969 194.137C579.034 195.469 577.756 196.518 576.136 197.284C574.515 198.04 572.661 198.418 570.572 198.418Z" fill="#222222"/>
<path d="M570.572 198.418C568.524 198.418 566.695 198.065 565.084 197.359C563.483 196.653 562.215 195.673 561.281 194.42C560.356 193.158 559.859 191.696 559.789 190.036H564.472C564.532 190.94 564.835 191.726 565.382 192.392C565.939 193.048 566.665 193.555 567.56 193.913C568.455 194.271 569.449 194.45 570.543 194.45C571.746 194.45 572.81 194.241 573.734 193.824C574.669 193.406 575.4 192.825 575.927 192.079C576.454 191.323 576.717 190.453 576.717 189.469C576.717 188.445 576.454 187.545 575.927 186.769C575.41 185.984 574.649 185.367 573.645 184.92C572.651 184.472 571.447 184.249 570.036 184.249H567.455V180.49H570.036C571.169 180.49 572.163 180.286 573.018 179.879C573.884 179.471 574.56 178.904 575.047 178.178C575.534 177.442 575.778 176.582 575.778 175.598C575.778 174.653 575.564 173.833 575.136 173.137C574.719 172.431 574.122 171.879 573.347 171.482C572.581 171.084 571.676 170.885 570.632 170.885C569.638 170.885 568.708 171.069 567.843 171.437C566.988 171.795 566.292 172.312 565.755 172.988C565.218 173.654 564.93 174.455 564.89 175.389H560.43C560.48 173.739 560.967 172.287 561.892 171.034C562.827 169.781 564.06 168.802 565.591 168.096C567.122 167.39 568.822 167.037 570.692 167.037C572.651 167.037 574.341 167.42 575.763 168.185C577.195 168.941 578.298 169.95 579.074 171.213C579.859 172.476 580.247 173.858 580.237 175.359C580.247 177.07 579.77 178.521 578.805 179.714C577.851 180.908 576.578 181.708 574.987 182.116V182.354C577.016 182.663 578.587 183.468 579.7 184.771C580.824 186.073 581.381 187.689 581.371 189.618C581.381 191.298 580.913 192.805 579.969 194.137C579.034 195.469 577.756 196.518 576.136 197.284C574.515 198.04 572.661 198.418 570.572 198.418Z" fill="#222222"/>
<path d="M570.572 198.418C568.524 198.418 566.695 198.065 565.084 197.359C563.483 196.653 562.215 195.673 561.281 194.42C560.356 193.158 559.859 191.696 559.789 190.036H564.472C564.532 190.94 564.835 191.726 565.382 192.392C565.939 193.048 566.665 193.555 567.56 193.913C568.455 194.271 569.449 194.45 570.543 194.45C571.746 194.45 572.81 194.241 573.734 193.824C574.669 193.406 575.4 192.825 575.927 192.079C576.454 191.323 576.717 190.453 576.717 189.469C576.717 188.445 576.454 187.545 575.927 186.769C575.41 185.984 574.649 185.367 573.645 184.92C572.651 184.472 571.447 184.249 570.036 184.249H567.455V180.49H570.036C571.169 180.49 572.163 180.286 573.018 179.879C573.884 179.471 574.56 178.904 575.047 178.178C575.534 177.442 575.778 176.582 575.778 175.598C575.778 174.653 575.564 173.833 575.136 173.137C574.719 172.431 574.122 171.879 573.347 171.482C572.581 171.084 571.676 170.885 570.632 170.885C569.638 170.885 568.708 171.069 567.843 171.437C566.988 171.795 566.292 172.312 565.755 172.988C565.218 173.654 564.93 174.455 564.89 175.389H560.43C560.48 173.739 560.967 172.287 561.892 171.034C562.827 169.781 564.06 168.802 565.591 168.096C567.122 167.39 568.822 167.037 570.692 167.037C572.651 167.037 574.341 167.42 575.763 168.185C577.195 168.941 578.298 169.95 579.074 171.213C579.859 172.476 580.247 173.858 580.237 175.359C580.247 177.07 579.77 178.521 578.805 179.714C577.851 180.908 576.578 181.708 574.987 182.116V182.354C577.016 182.663 578.587 183.468 579.7 184.771C580.824 186.073 581.381 187.689 581.371 189.618C581.381 191.298 580.913 192.805 579.969 194.137C579.034 195.469 577.756 196.518 576.136 197.284C574.515 198.04 572.661 198.418 570.572 198.418Z" fill="#222222"/>
<path d="M570.572 198.418C568.524 198.418 566.695 198.065 565.084 197.359C563.483 196.653 562.215 195.673 561.281 194.42C560.356 193.158 559.859 191.696 559.789 190.036H564.472C564.532 190.94 564.835 191.726 565.382 192.392C565.939 193.048 566.665 193.555 567.56 193.913C568.455 194.271 569.449 194.45 570.543 194.45C571.746 194.45 572.81 194.241 573.734 193.824C574.669 193.406 575.4 192.825 575.927 192.079C576.454 191.323 576.717 190.453 576.717 189.469C576.717 188.445 576.454 187.545 575.927 186.769C575.41 185.984 574.649 185.367 573.645 184.92C572.651 184.472 571.447 184.249 570.036 184.249H567.455V180.49H570.036C571.169 180.49 572.163 180.286 573.018 179.879C573.884 179.471 574.56 178.904 575.047 178.178C575.534 177.442 575.778 176.582 575.778 175.598C575.778 174.653 575.564 173.833 575.136 173.137C574.719 172.431 574.122 171.879 573.347 171.482C572.581 171.084 571.676 170.885 570.632 170.885C569.638 170.885 568.708 171.069 567.843 171.437C566.988 171.795 566.292 172.312 565.755 172.988C565.218 173.654 564.93 174.455 564.89 175.389H560.43C560.48 173.739 560.967 172.287 561.892 171.034C562.827 169.781 564.06 168.802 565.591 168.096C567.122 167.39 568.822 167.037 570.692 167.037C572.651 167.037 574.341 167.42 575.763 168.185C577.195 168.941 578.298 169.95 579.074 171.213C579.859 172.476 580.247 173.858 580.237 175.359C580.247 177.07 579.77 178.521 578.805 179.714C577.851 180.908 576.578 181.708 574.987 182.116V182.354C577.016 182.663 578.587 183.468 579.7 184.771C580.824 186.073 581.381 187.689 581.371 189.618C581.381 191.298 580.913 192.805 579.969 194.137C579.034 195.469 577.756 196.518 576.136 197.284C574.515 198.04 572.661 198.418 570.572 198.418Z" fill="#222222"/>
<path d="M603.297 192.034V188.305L616.496 167.455H619.435V172.943H617.57L608.129 187.888V188.126H626.221V192.034H603.297ZM617.779 198V190.901L617.809 189.2V167.455H622.179V198H617.779Z" fill="#222222"/>
<path d="M603.297 192.034V188.305L616.496 167.455H619.435V172.943H617.57L608.129 187.888V188.126H626.221V192.034H603.297ZM617.779 198V190.901L617.809 189.2V167.455H622.179V198H617.779Z" fill="#222222"/>
<path d="M603.297 192.034V188.305L616.496 167.455H619.435V172.943H617.57L608.129 187.888V188.126H626.221V192.034H603.297ZM617.779 198V190.901L617.809 189.2V167.455H622.179V198H617.779Z" fill="#222222"/>
<path d="M603.297 192.034V188.305L616.496 167.455H619.435V172.943H617.57L608.129 187.888V188.126H626.221V192.034H603.297ZM617.779 198V190.901L617.809 189.2V167.455H622.179V198H617.779Z" fill="#222222"/>
<path d="M436 78.5L438.129 79.0322C445.866 80.9665 454.005 80.5437 461.5 77.8182L466.5 76" stroke="#222222" stroke-width="3" stroke-linecap="round"/>
<path d="M426.5 78.5L424.371 79.0322C416.634 80.9665 408.495 80.5437 401 77.8182L396 76" stroke="#222222" stroke-width="3" stroke-linecap="round"/>
<path d="M216 124L191 109.566L191 138.434L216 124ZM163 126.5L193.5 126.5L193.5 121.5L163 121.5L163 126.5Z" fill="#888888"/>
<path d="M539 124L514 109.566L514 138.434L539 124ZM486 126.5L516.5 126.5L516.5 121.5L486 121.5L486 126.5Z" fill="#888888"/>
<path d="M377 124L352 109.566L352 138.434L377 124ZM324 126.5L354.5 126.5L354.5 121.5L324 121.5L324 126.5Z" fill="#888888"/>
<path d="M328.291 102.377C327.136 102.484 326.114 102.295 325.227 101.811C324.344 101.327 323.628 100.571 323.077 99.5444C322.531 98.517 322.187 97.2508 322.047 95.746C321.903 94.2461 322.001 92.9464 322.343 91.8471C322.689 90.7473 323.249 89.8822 324.025 89.2517C324.804 88.6163 325.769 88.2432 326.92 88.1324C328.07 88.0216 329.087 88.204 329.968 88.6794C330.855 89.1544 331.572 89.8987 332.122 90.9122C332.671 91.9213 333.015 93.176 333.155 94.6764C333.301 96.1853 333.201 97.4963 332.856 98.6095C332.516 99.7223 331.959 100.601 331.185 101.245C330.411 101.888 329.446 102.266 328.291 102.377ZM328.059 99.9662C328.847 99.8903 329.438 99.4335 329.832 98.5957C330.226 97.758 330.344 96.5468 330.187 94.9622C330.086 93.919 329.895 93.0607 329.614 92.3874C329.336 91.7137 328.986 91.221 328.563 90.9092C328.144 90.5971 327.673 90.4662 327.149 90.5167C326.366 90.5921 325.777 91.0442 325.382 91.873C324.987 92.7019 324.863 93.8978 325.009 95.4608C325.111 96.5175 325.301 97.3894 325.579 98.0766C325.862 98.7588 326.215 99.2581 326.639 99.5743C327.062 99.886 327.535 100.017 328.059 99.9662ZM337.052 101.405C336.609 101.448 336.213 101.328 335.865 101.045C335.521 100.757 335.327 100.392 335.285 99.9483C335.243 99.5095 335.363 99.1183 335.646 98.7747C335.934 98.4307 336.299 98.2373 336.743 98.1946C337.173 98.1533 337.564 98.2738 337.916 98.5561C338.269 98.8385 338.466 99.1991 338.508 99.6379C338.537 99.9334 338.487 100.212 338.358 100.473C338.234 100.729 338.058 100.942 337.83 101.113C337.602 101.28 337.343 101.377 337.052 101.405ZM343.911 86.6861L345.235 100.441L342.327 100.721L341.269 89.7265L341.188 89.7342L338.228 92.0121L337.98 89.4331L341.178 86.9494L343.911 86.6861ZM353.546 99.8303C352.597 99.9217 351.734 99.8285 350.957 99.5509C350.185 99.2728 349.552 98.8479 349.058 98.2763C348.565 97.7047 348.271 97.0236 348.177 96.2328L350.998 95.9612C351.08 96.491 351.346 96.9015 351.794 97.1927C352.242 97.484 352.753 97.602 353.326 97.5468C353.783 97.5028 354.176 97.3633 354.506 97.1282C354.84 96.8882 355.088 96.5773 355.25 96.1957C355.416 95.8091 355.476 95.3786 355.431 94.904C355.384 94.4204 355.24 94.005 354.999 93.6576C354.762 93.3099 354.455 93.0503 354.077 92.8788C353.699 92.7073 353.279 92.6416 352.817 92.6815C352.414 92.7203 352.03 92.8409 351.666 93.0432C351.306 93.2451 351.034 93.4994 350.851 93.8062L348.221 93.5918L348.174 86.2757L356.583 85.466L356.811 87.8435L350.801 88.4223L350.776 91.9019L350.857 91.8942C351.066 91.5306 351.404 91.2134 351.87 90.9425C352.337 90.6717 352.872 90.5071 353.477 90.4489C354.305 90.3692 355.062 90.4928 355.749 90.8198C356.436 91.1468 357 91.6325 357.442 92.2769C357.883 92.9168 358.144 93.6779 358.224 94.5604C358.318 95.4868 358.182 96.3313 357.817 97.094C357.457 97.8518 356.909 98.4739 356.174 98.9604C355.443 99.442 354.567 99.732 353.546 99.8303ZM369.912 81.8781L370.85 91.6181C370.87 91.8261 370.8 91.8901 370.575 91.9309C370.348 91.9527 369.648 92.0201 368.965 92.0668C369.345 92.641 369.761 93.5935 369.916 94.2085C371.09 94.1145 371.915 93.9587 372.503 93.5204C373.109 93.0802 373.24 92.4568 373.14 91.4166L372.2 81.6577L369.912 81.8781ZM367.424 85.3817C367.324 87.5101 366.883 89.6713 366.025 91.071C366.596 91.2451 367.611 91.6818 368.075 91.9425C368.9 90.3933 369.428 87.9564 369.615 85.5334L367.424 85.3817ZM373.028 85.3002C374.043 86.9203 375.003 89.1567 375.355 90.6307L377.385 89.7099C376.975 88.2224 375.986 86.0843 374.914 84.4696L373.028 85.3002ZM374.312 90.9029C373.508 94.8361 371.135 96.7634 366.841 97.9595C367.367 98.4624 367.98 99.2814 368.273 99.9404C373.037 98.2791 375.655 95.9273 376.559 91.2401L374.312 90.9029ZM361.682 84.4266L363.221 100.408L365.434 100.195L363.895 84.2135L361.682 84.4266ZM359.301 88.2444L359.505 90.3626L366.446 89.6943L366.242 87.5761L359.301 88.2444ZM362.239 88.8205C361.836 90.978 360.776 93.8478 359.598 95.4883C360.012 96.0211 360.595 96.9194 360.867 97.5613C362.143 95.5487 363.161 92.053 363.619 89.2793L362.239 88.8205ZM364.482 82.5728C363.089 83.3749 360.797 84.1492 358.732 84.7107C359.042 85.158 359.399 85.8872 359.541 86.3698C361.726 85.8731 364.306 85.1093 366.164 84.186L364.482 82.5728ZM364.434 90.4034L363.536 91.387C364.199 92.1249 365.499 93.7366 366.041 94.6007L367.156 92.6991C366.754 92.2987 364.945 90.755 364.434 90.4034Z" fill="#888888"/>
</svg>
