<svg width="700" height="250" viewBox="0 0 700 250" fill="none" xmlns="http://www.w3.org/2000/svg">
<circle cx="107" cy="82" r="48.5" fill="white" stroke="black" stroke-width="3"/>
<path d="M103.417 73C103.417 83.504 96.4594 91.5 88.4583 91.5C80.4573 91.5 73.5 83.504 73.5 73C73.5 62.496 80.4573 54.5 88.4583 54.5C96.4594 54.5 103.417 62.496 103.417 73Z" fill="white" stroke="black" stroke-width="3"/>
<circle cx="96" cy="73" r="5" fill="black"/>
<path d="M140.417 73C140.417 83.504 133.459 91.5 125.458 91.5C117.457 91.5 110.5 83.504 110.5 73C110.5 62.496 117.457 54.5 125.458 54.5C133.459 54.5 140.417 62.496 140.417 73Z" fill="white" stroke="black" stroke-width="3"/>
<circle cx="118" cy="73" r="5" fill="black"/>
<circle cx="107" cy="82" r="48.5" fill="white" stroke="black" stroke-width="3"/>
<path d="M103.417 73C103.417 83.504 96.4594 91.5 88.4583 91.5C80.4573 91.5 73.5 83.504 73.5 73C73.5 62.496 80.4573 54.5 88.4583 54.5C96.4594 54.5 103.417 62.496 103.417 73Z" fill="white" stroke="black" stroke-width="3"/>
<circle cx="96" cy="73" r="5" fill="black"/>
<path d="M140.417 73C140.417 83.504 133.459 91.5 125.458 91.5C117.457 91.5 110.5 83.504 110.5 73C110.5 62.496 117.457 54.5 125.458 54.5C133.459 54.5 140.417 62.496 140.417 73Z" fill="white" stroke="black" stroke-width="3"/>
<circle cx="118" cy="73" r="5" fill="black"/>
<circle cx="269" cy="82" r="48.5" fill="white" stroke="black" stroke-width="3"/>
<path d="M97.5115 158.073L103.5 159.694V211.04L98.2954 209.631C89.2705 207.188 79.7509 207.248 70.7575 209.804L66.5 211.014V159.679L71.5777 158.236C80.0472 155.829 89.0123 155.772 97.5115 158.073Z" fill="#EEEEEE" stroke="black" stroke-width="3"/>
<path d="M141.511 158.073L147.5 159.694V211.04L142.295 209.631C133.271 207.188 123.751 207.248 114.757 209.804L110.5 211.014V159.679L115.578 158.236C124.047 155.829 133.012 155.772 141.511 158.073Z" fill="#EEEEEE" stroke="black" stroke-width="3"/>
<path d="M88.7649 167.455V198H82.3068V173.585H82.1278L75.1328 177.969V172.242L82.6946 167.455H88.7649Z" fill="black"/>
<path d="M88.7649 167.455V198H82.3068V173.585H82.1278L75.1328 177.969V172.242L82.6946 167.455H88.7649Z" fill="black"/>
<path d="M88.7649 167.455V198H82.3068V173.585H82.1278L75.1328 177.969V172.242L82.6946 167.455H88.7649Z" fill="black"/>
<path d="M88.7649 167.455V198H82.3068V173.585H82.1278L75.1328 177.969V172.242L82.6946 167.455H88.7649Z" fill="black"/>
<path d="M118.476 198V193.347L129.349 183.279C130.273 182.384 131.049 181.579 131.675 180.863C132.312 180.147 132.794 179.446 133.122 178.76C133.45 178.064 133.614 177.313 133.614 176.508C133.614 175.613 133.411 174.842 133.003 174.196C132.595 173.54 132.038 173.038 131.332 172.69C130.626 172.332 129.826 172.153 128.931 172.153C127.996 172.153 127.181 172.342 126.485 172.719C125.789 173.097 125.252 173.639 124.874 174.345C124.496 175.051 124.308 175.891 124.308 176.866H118.178C118.178 174.867 118.63 173.132 119.535 171.661C120.44 170.189 121.707 169.05 123.338 168.245C124.969 167.44 126.848 167.037 128.976 167.037C131.163 167.037 133.067 167.425 134.688 168.2C136.319 168.966 137.587 170.03 138.491 171.392C139.396 172.754 139.849 174.315 139.849 176.075C139.849 177.229 139.62 178.367 139.163 179.491C138.715 180.614 137.915 181.862 136.761 183.234C135.608 184.597 133.982 186.232 131.884 188.141L127.425 192.511V192.72H140.251V198H118.476Z" fill="black"/>
<path d="M118.476 198V193.347L129.349 183.279C130.273 182.384 131.049 181.579 131.675 180.863C132.312 180.147 132.794 179.446 133.122 178.76C133.45 178.064 133.614 177.313 133.614 176.508C133.614 175.613 133.411 174.842 133.003 174.196C132.595 173.54 132.038 173.038 131.332 172.69C130.626 172.332 129.826 172.153 128.931 172.153C127.996 172.153 127.181 172.342 126.485 172.719C125.789 173.097 125.252 173.639 124.874 174.345C124.496 175.051 124.308 175.891 124.308 176.866H118.178C118.178 174.867 118.63 173.132 119.535 171.661C120.44 170.189 121.707 169.05 123.338 168.245C124.969 167.44 126.848 167.037 128.976 167.037C131.163 167.037 133.067 167.425 134.688 168.2C136.319 168.966 137.587 170.03 138.491 171.392C139.396 172.754 139.849 174.315 139.849 176.075C139.849 177.229 139.62 178.367 139.163 179.491C138.715 180.614 137.915 181.862 136.761 183.234C135.608 184.597 133.982 186.232 131.884 188.141L127.425 192.511V192.72H140.251V198H118.476Z" fill="black"/>
<path d="M118.476 198V193.347L129.349 183.279C130.273 182.384 131.049 181.579 131.675 180.863C132.312 180.147 132.794 179.446 133.122 178.76C133.45 178.064 133.614 177.313 133.614 176.508C133.614 175.613 133.411 174.842 133.003 174.196C132.595 173.54 132.038 173.038 131.332 172.69C130.626 172.332 129.826 172.153 128.931 172.153C127.996 172.153 127.181 172.342 126.485 172.719C125.789 173.097 125.252 173.639 124.874 174.345C124.496 175.051 124.308 175.891 124.308 176.866H118.178C118.178 174.867 118.63 173.132 119.535 171.661C120.44 170.189 121.707 169.05 123.338 168.245C124.969 167.44 126.848 167.037 128.976 167.037C131.163 167.037 133.067 167.425 134.688 168.2C136.319 168.966 137.587 170.03 138.491 171.392C139.396 172.754 139.849 174.315 139.849 176.075C139.849 177.229 139.62 178.367 139.163 179.491C138.715 180.614 137.915 181.862 136.761 183.234C135.608 184.597 133.982 186.232 131.884 188.141L127.425 192.511V192.72H140.251V198H118.476Z" fill="black"/>
<path d="M118.476 198V193.347L129.349 183.279C130.273 182.384 131.049 181.579 131.675 180.863C132.312 180.147 132.794 179.446 133.122 178.76C133.45 178.064 133.614 177.313 133.614 176.508C133.614 175.613 133.411 174.842 133.003 174.196C132.595 173.54 132.038 173.038 131.332 172.69C130.626 172.332 129.826 172.153 128.931 172.153C127.996 172.153 127.181 172.342 126.485 172.719C125.789 173.097 125.252 173.639 124.874 174.345C124.496 175.051 124.308 175.891 124.308 176.866H118.178C118.178 174.867 118.63 173.132 119.535 171.661C120.44 170.189 121.707 169.05 123.338 168.245C124.969 167.44 126.848 167.037 128.976 167.037C131.163 167.037 133.067 167.425 134.688 168.2C136.319 168.966 137.587 170.03 138.491 171.392C139.396 172.754 139.849 174.315 139.849 176.075C139.849 177.229 139.62 178.367 139.163 179.491C138.715 180.614 137.915 181.862 136.761 183.234C135.608 184.597 133.982 186.232 131.884 188.141L127.425 192.511V192.72H140.251V198H118.476Z" fill="black"/>
<circle cx="593" cy="82" r="48.5" fill="white" stroke="black" stroke-width="3"/>
<path d="M589.417 73C589.417 83.504 582.459 91.5 574.458 91.5C566.457 91.5 559.5 83.504 559.5 73C559.5 62.496 566.457 54.5 574.458 54.5C582.459 54.5 589.417 62.496 589.417 73Z" fill="white" stroke="black" stroke-width="3"/>
<circle cx="582" cy="73" r="5" fill="black"/>
<path d="M626.417 73C626.417 83.504 619.459 91.5 611.458 91.5C603.457 91.5 596.5 83.504 596.5 73C596.5 62.496 603.457 54.5 611.458 54.5C619.459 54.5 626.417 62.496 626.417 73Z" fill="white" stroke="black" stroke-width="3"/>
<circle cx="604" cy="73" r="5" fill="black"/>
<circle cx="593" cy="82" r="48.5" fill="white" stroke="black" stroke-width="3"/>
<path d="M589.417 73C589.417 83.504 582.459 91.5 574.458 91.5C566.457 91.5 559.5 83.504 559.5 73C559.5 62.496 566.457 54.5 574.458 54.5C582.459 54.5 589.417 62.496 589.417 73Z" fill="white" stroke="black" stroke-width="3"/>
<circle cx="582" cy="73" r="5" fill="black"/>
<path d="M626.417 73C626.417 83.504 619.459 91.5 611.458 91.5C603.457 91.5 596.5 83.504 596.5 73C596.5 62.496 603.457 54.5 611.458 54.5C619.459 54.5 626.417 62.496 626.417 73Z" fill="white" stroke="black" stroke-width="3"/>
<circle cx="604" cy="73" r="5" fill="black"/>
<path d="M259.511 158.073L265.5 159.694V211.04L260.295 209.631C251.271 207.188 241.751 207.248 232.757 209.804L228.5 211.014V159.679L233.578 158.236C242.047 155.829 251.012 155.772 259.511 158.073Z" fill="#EEEEEE" stroke="black" stroke-width="3"/>
<path d="M303.511 158.073L309.5 159.694V211.04L304.295 209.631C295.271 207.188 285.751 207.248 276.757 209.804L272.5 211.014V159.679L277.578 158.236C286.047 155.829 295.012 155.772 303.511 158.073Z" fill="#EEEEEE" stroke="black" stroke-width="3"/>
<path d="M250.765 167.455V198H244.307V173.585H244.128L237.133 177.969V172.242L244.695 167.455H250.765Z" fill="black"/>
<path d="M250.765 167.455V198H244.307V173.585H244.128L237.133 177.969V172.242L244.695 167.455H250.765Z" fill="black"/>
<path d="M250.765 167.455V198H244.307V173.585H244.128L237.133 177.969V172.242L244.695 167.455H250.765Z" fill="black"/>
<path d="M250.765 167.455V198H244.307V173.585H244.128L237.133 177.969V172.242L244.695 167.455H250.765Z" fill="black"/>
<path d="M280.476 198V193.347L291.349 183.279C292.273 182.384 293.049 181.579 293.675 180.863C294.312 180.147 294.794 179.446 295.122 178.76C295.45 178.064 295.614 177.313 295.614 176.508C295.614 175.613 295.411 174.842 295.003 174.196C294.595 173.54 294.038 173.038 293.332 172.69C292.626 172.332 291.826 172.153 290.931 172.153C289.996 172.153 289.181 172.342 288.485 172.719C287.789 173.097 287.252 173.639 286.874 174.345C286.496 175.051 286.308 175.891 286.308 176.866H280.178C280.178 174.867 280.63 173.132 281.535 171.661C282.44 170.189 283.707 169.05 285.338 168.245C286.969 167.44 288.848 167.037 290.976 167.037C293.163 167.037 295.067 167.425 296.688 168.2C298.319 168.966 299.587 170.03 300.491 171.392C301.396 172.754 301.849 174.315 301.849 176.075C301.849 177.229 301.62 178.367 301.163 179.491C300.715 180.614 299.915 181.862 298.761 183.234C297.608 184.597 295.982 186.232 293.884 188.141L289.425 192.511V192.72H302.251V198H280.476Z" fill="black"/>
<path d="M280.476 198V193.347L291.349 183.279C292.273 182.384 293.049 181.579 293.675 180.863C294.312 180.147 294.794 179.446 295.122 178.76C295.45 178.064 295.614 177.313 295.614 176.508C295.614 175.613 295.411 174.842 295.003 174.196C294.595 173.54 294.038 173.038 293.332 172.69C292.626 172.332 291.826 172.153 290.931 172.153C289.996 172.153 289.181 172.342 288.485 172.719C287.789 173.097 287.252 173.639 286.874 174.345C286.496 175.051 286.308 175.891 286.308 176.866H280.178C280.178 174.867 280.63 173.132 281.535 171.661C282.44 170.189 283.707 169.05 285.338 168.245C286.969 167.44 288.848 167.037 290.976 167.037C293.163 167.037 295.067 167.425 296.688 168.2C298.319 168.966 299.587 170.03 300.491 171.392C301.396 172.754 301.849 174.315 301.849 176.075C301.849 177.229 301.62 178.367 301.163 179.491C300.715 180.614 299.915 181.862 298.761 183.234C297.608 184.597 295.982 186.232 293.884 188.141L289.425 192.511V192.72H302.251V198H280.476Z" fill="black"/>
<path d="M280.476 198V193.347L291.349 183.279C292.273 182.384 293.049 181.579 293.675 180.863C294.312 180.147 294.794 179.446 295.122 178.76C295.45 178.064 295.614 177.313 295.614 176.508C295.614 175.613 295.411 174.842 295.003 174.196C294.595 173.54 294.038 173.038 293.332 172.69C292.626 172.332 291.826 172.153 290.931 172.153C289.996 172.153 289.181 172.342 288.485 172.719C287.789 173.097 287.252 173.639 286.874 174.345C286.496 175.051 286.308 175.891 286.308 176.866H280.178C280.178 174.867 280.63 173.132 281.535 171.661C282.44 170.189 283.707 169.05 285.338 168.245C286.969 167.44 288.848 167.037 290.976 167.037C293.163 167.037 295.067 167.425 296.688 168.2C298.319 168.966 299.587 170.03 300.491 171.392C301.396 172.754 301.849 174.315 301.849 176.075C301.849 177.229 301.62 178.367 301.163 179.491C300.715 180.614 299.915 181.862 298.761 183.234C297.608 184.597 295.982 186.232 293.884 188.141L289.425 192.511V192.72H302.251V198H280.476Z" fill="black"/>
<path d="M280.476 198V193.347L291.349 183.279C292.273 182.384 293.049 181.579 293.675 180.863C294.312 180.147 294.794 179.446 295.122 178.76C295.45 178.064 295.614 177.313 295.614 176.508C295.614 175.613 295.411 174.842 295.003 174.196C294.595 173.54 294.038 173.038 293.332 172.69C292.626 172.332 291.826 172.153 290.931 172.153C289.996 172.153 289.181 172.342 288.485 172.719C287.789 173.097 287.252 173.639 286.874 174.345C286.496 175.051 286.308 175.891 286.308 176.866H280.178C280.178 174.867 280.63 173.132 281.535 171.661C282.44 170.189 283.707 169.05 285.338 168.245C286.969 167.44 288.848 167.037 290.976 167.037C293.163 167.037 295.067 167.425 296.688 168.2C298.319 168.966 299.587 170.03 300.491 171.392C301.396 172.754 301.849 174.315 301.849 176.075C301.849 177.229 301.62 178.367 301.163 179.491C300.715 180.614 299.915 181.862 298.761 183.234C297.608 184.597 295.982 186.232 293.884 188.141L289.425 192.511V192.72H302.251V198H280.476Z" fill="black"/>
<path d="M274 78.5L276.129 79.0322C283.866 80.9665 292.005 80.5437 299.5 77.8182L304.5 76" stroke="black" stroke-width="3" stroke-linecap="round"/>
<path d="M264.5 78.5L262.371 79.0322C254.634 80.9665 246.495 80.5437 239 77.8182L234 76" stroke="black" stroke-width="3" stroke-linecap="round"/>
<circle cx="431" cy="82" r="48.5" fill="white" stroke="black" stroke-width="3"/>
<path d="M421.511 158.073L427.5 159.694V211.04L422.295 209.631C413.271 207.188 403.751 207.248 394.757 209.804L390.5 211.014V159.679L395.578 158.236C404.047 155.829 413.012 155.772 421.511 158.073Z" fill="#EEEEEE" stroke="black" stroke-width="3"/>
<path d="M465.511 158.073L471.5 159.694V211.04L466.295 209.631C457.271 207.188 447.751 207.248 438.757 209.804L434.5 211.014V159.679L439.578 158.236C448.047 155.829 457.012 155.772 465.511 158.073Z" fill="#EEEEEE" stroke="black" stroke-width="3"/>
<path d="M408.766 198.418C406.539 198.418 404.555 198.035 402.815 197.269C401.085 196.494 399.718 195.43 398.714 194.077C397.719 192.715 397.207 191.144 397.178 189.364H403.68C403.72 190.11 403.964 190.766 404.411 191.333C404.869 191.89 405.475 192.322 406.231 192.631C406.987 192.939 407.837 193.093 408.781 193.093C409.766 193.093 410.636 192.919 411.391 192.571C412.147 192.223 412.739 191.741 413.166 191.124C413.594 190.508 413.808 189.797 413.808 188.991C413.808 188.176 413.579 187.455 413.121 186.829C412.674 186.192 412.028 185.695 411.183 185.337C410.347 184.979 409.353 184.8 408.2 184.8H405.351V180.058H408.2C409.174 180.058 410.034 179.888 410.78 179.55C411.536 179.212 412.122 178.745 412.54 178.148C412.957 177.542 413.166 176.836 413.166 176.031C413.166 175.265 412.982 174.594 412.614 174.017C412.256 173.43 411.749 172.973 411.093 172.645C410.447 172.317 409.691 172.153 408.826 172.153C407.951 172.153 407.151 172.312 406.425 172.63C405.699 172.938 405.117 173.381 404.68 173.957C404.242 174.534 404.009 175.21 403.979 175.986H397.789C397.819 174.226 398.321 172.675 399.295 171.332C400.27 169.99 401.582 168.941 403.233 168.185C404.893 167.42 406.768 167.037 408.856 167.037C410.964 167.037 412.808 167.42 414.389 168.185C415.97 168.951 417.198 169.985 418.073 171.288C418.958 172.58 419.396 174.032 419.386 175.643C419.396 177.353 418.864 178.78 417.79 179.923C416.726 181.067 415.339 181.793 413.629 182.101V182.339C415.876 182.628 417.586 183.408 418.759 184.681C419.942 185.944 420.529 187.525 420.519 189.424C420.529 191.164 420.027 192.71 419.013 194.062C418.009 195.415 416.621 196.479 414.852 197.254C413.082 198.03 411.053 198.418 408.766 198.418Z" fill="black"/>
<path d="M408.766 198.418C406.539 198.418 404.555 198.035 402.815 197.269C401.085 196.494 399.718 195.43 398.714 194.077C397.719 192.715 397.207 191.144 397.178 189.364H403.68C403.72 190.11 403.964 190.766 404.411 191.333C404.869 191.89 405.475 192.322 406.231 192.631C406.987 192.939 407.837 193.093 408.781 193.093C409.766 193.093 410.636 192.919 411.391 192.571C412.147 192.223 412.739 191.741 413.166 191.124C413.594 190.508 413.808 189.797 413.808 188.991C413.808 188.176 413.579 187.455 413.121 186.829C412.674 186.192 412.028 185.695 411.183 185.337C410.347 184.979 409.353 184.8 408.2 184.8H405.351V180.058H408.2C409.174 180.058 410.034 179.888 410.78 179.55C411.536 179.212 412.122 178.745 412.54 178.148C412.957 177.542 413.166 176.836 413.166 176.031C413.166 175.265 412.982 174.594 412.614 174.017C412.256 173.43 411.749 172.973 411.093 172.645C410.447 172.317 409.691 172.153 408.826 172.153C407.951 172.153 407.151 172.312 406.425 172.63C405.699 172.938 405.117 173.381 404.68 173.957C404.242 174.534 404.009 175.21 403.979 175.986H397.789C397.819 174.226 398.321 172.675 399.295 171.332C400.27 169.99 401.582 168.941 403.233 168.185C404.893 167.42 406.768 167.037 408.856 167.037C410.964 167.037 412.808 167.42 414.389 168.185C415.97 168.951 417.198 169.985 418.073 171.288C418.958 172.58 419.396 174.032 419.386 175.643C419.396 177.353 418.864 178.78 417.79 179.923C416.726 181.067 415.339 181.793 413.629 182.101V182.339C415.876 182.628 417.586 183.408 418.759 184.681C419.942 185.944 420.529 187.525 420.519 189.424C420.529 191.164 420.027 192.71 419.013 194.062C418.009 195.415 416.621 196.479 414.852 197.254C413.082 198.03 411.053 198.418 408.766 198.418Z" fill="black"/>
<path d="M408.766 198.418C406.539 198.418 404.555 198.035 402.815 197.269C401.085 196.494 399.718 195.43 398.714 194.077C397.719 192.715 397.207 191.144 397.178 189.364H403.68C403.72 190.11 403.964 190.766 404.411 191.333C404.869 191.89 405.475 192.322 406.231 192.631C406.987 192.939 407.837 193.093 408.781 193.093C409.766 193.093 410.636 192.919 411.391 192.571C412.147 192.223 412.739 191.741 413.166 191.124C413.594 190.508 413.808 189.797 413.808 188.991C413.808 188.176 413.579 187.455 413.121 186.829C412.674 186.192 412.028 185.695 411.183 185.337C410.347 184.979 409.353 184.8 408.2 184.8H405.351V180.058H408.2C409.174 180.058 410.034 179.888 410.78 179.55C411.536 179.212 412.122 178.745 412.54 178.148C412.957 177.542 413.166 176.836 413.166 176.031C413.166 175.265 412.982 174.594 412.614 174.017C412.256 173.43 411.749 172.973 411.093 172.645C410.447 172.317 409.691 172.153 408.826 172.153C407.951 172.153 407.151 172.312 406.425 172.63C405.699 172.938 405.117 173.381 404.68 173.957C404.242 174.534 404.009 175.21 403.979 175.986H397.789C397.819 174.226 398.321 172.675 399.295 171.332C400.27 169.99 401.582 168.941 403.233 168.185C404.893 167.42 406.768 167.037 408.856 167.037C410.964 167.037 412.808 167.42 414.389 168.185C415.97 168.951 417.198 169.985 418.073 171.288C418.958 172.58 419.396 174.032 419.386 175.643C419.396 177.353 418.864 178.78 417.79 179.923C416.726 181.067 415.339 181.793 413.629 182.101V182.339C415.876 182.628 417.586 183.408 418.759 184.681C419.942 185.944 420.529 187.525 420.519 189.424C420.529 191.164 420.027 192.71 419.013 194.062C418.009 195.415 416.621 196.479 414.852 197.254C413.082 198.03 411.053 198.418 408.766 198.418Z" fill="black"/>
<path d="M408.766 198.418C406.539 198.418 404.555 198.035 402.815 197.269C401.085 196.494 399.718 195.43 398.714 194.077C397.719 192.715 397.207 191.144 397.178 189.364H403.68C403.72 190.11 403.964 190.766 404.411 191.333C404.869 191.89 405.475 192.322 406.231 192.631C406.987 192.939 407.837 193.093 408.781 193.093C409.766 193.093 410.636 192.919 411.391 192.571C412.147 192.223 412.739 191.741 413.166 191.124C413.594 190.508 413.808 189.797 413.808 188.991C413.808 188.176 413.579 187.455 413.121 186.829C412.674 186.192 412.028 185.695 411.183 185.337C410.347 184.979 409.353 184.8 408.2 184.8H405.351V180.058H408.2C409.174 180.058 410.034 179.888 410.78 179.55C411.536 179.212 412.122 178.745 412.54 178.148C412.957 177.542 413.166 176.836 413.166 176.031C413.166 175.265 412.982 174.594 412.614 174.017C412.256 173.43 411.749 172.973 411.093 172.645C410.447 172.317 409.691 172.153 408.826 172.153C407.951 172.153 407.151 172.312 406.425 172.63C405.699 172.938 405.117 173.381 404.68 173.957C404.242 174.534 404.009 175.21 403.979 175.986H397.789C397.819 174.226 398.321 172.675 399.295 171.332C400.27 169.99 401.582 168.941 403.233 168.185C404.893 167.42 406.768 167.037 408.856 167.037C410.964 167.037 412.808 167.42 414.389 168.185C415.97 168.951 417.198 169.985 418.073 171.288C418.958 172.58 419.396 174.032 419.386 175.643C419.396 177.353 418.864 178.78 417.79 179.923C416.726 181.067 415.339 181.793 413.629 182.101V182.339C415.876 182.628 417.586 183.408 418.759 184.681C419.942 185.944 420.529 187.525 420.519 189.424C420.529 191.164 420.027 192.71 419.013 194.062C418.009 195.415 416.621 196.479 414.852 197.254C413.082 198.03 411.053 198.418 408.766 198.418Z" fill="black"/>
<path d="M440.013 192.631V187.545L452.766 167.455H457.151V174.494H454.555L446.516 187.217V187.455H464.638V192.631H440.013ZM454.675 198V191.08L454.794 188.827V167.455H460.849V198H454.675Z" fill="black"/>
<path d="M440.013 192.631V187.545L452.766 167.455H457.151V174.494H454.555L446.516 187.217V187.455H464.638V192.631H440.013ZM454.675 198V191.08L454.794 188.827V167.455H460.849V198H454.675Z" fill="black"/>
<path d="M440.013 192.631V187.545L452.766 167.455H457.151V174.494H454.555L446.516 187.217V187.455H464.638V192.631H440.013ZM454.675 198V191.08L454.794 188.827V167.455H460.849V198H454.675Z" fill="black"/>
<path d="M440.013 192.631V187.545L452.766 167.455H457.151V174.494H454.555L446.516 187.217V187.455H464.638V192.631H440.013ZM454.675 198V191.08L454.794 188.827V167.455H460.849V198H454.675Z" fill="black"/>
<path d="M583.511 162.073L589.5 163.694V215.04L584.295 213.631C575.271 211.188 565.751 211.248 556.757 213.804L552.5 215.014V163.679L557.578 162.236C566.047 159.829 575.012 159.772 583.511 162.073Z" fill="#EEEEEE" stroke="black" stroke-width="3"/>
<path d="M627.511 162.073L633.5 163.694V215.04L628.295 213.631C619.271 211.188 609.751 211.248 600.757 213.804L596.5 215.014V163.679L601.578 162.236C610.047 159.829 619.012 159.772 627.511 162.073Z" fill="#EEEEEE" stroke="black" stroke-width="3"/>
<path d="M570.766 202.418C568.539 202.418 566.555 202.035 564.815 201.269C563.085 200.494 561.718 199.43 560.714 198.077C559.719 196.715 559.207 195.144 559.178 193.364H565.68C565.72 194.11 565.964 194.766 566.411 195.333C566.869 195.89 567.475 196.322 568.231 196.631C568.987 196.939 569.837 197.093 570.781 197.093C571.766 197.093 572.636 196.919 573.391 196.571C574.147 196.223 574.739 195.741 575.166 195.124C575.594 194.508 575.808 193.797 575.808 192.991C575.808 192.176 575.579 191.455 575.121 190.829C574.674 190.192 574.028 189.695 573.183 189.337C572.347 188.979 571.353 188.8 570.2 188.8H567.351V184.058H570.2C571.174 184.058 572.034 183.888 572.78 183.55C573.536 183.212 574.122 182.745 574.54 182.148C574.957 181.542 575.166 180.836 575.166 180.031C575.166 179.265 574.982 178.594 574.614 178.017C574.256 177.43 573.749 176.973 573.093 176.645C572.447 176.317 571.691 176.153 570.826 176.153C569.951 176.153 569.151 176.312 568.425 176.63C567.699 176.938 567.117 177.381 566.68 177.957C566.242 178.534 566.009 179.21 565.979 179.986H559.789C559.819 178.226 560.321 176.675 561.295 175.332C562.27 173.99 563.582 172.941 565.233 172.185C566.893 171.42 568.768 171.037 570.856 171.037C572.964 171.037 574.808 171.42 576.389 172.185C577.97 172.951 579.198 173.985 580.073 175.288C580.958 176.58 581.396 178.032 581.386 179.643C581.396 181.353 580.864 182.78 579.79 183.923C578.726 185.067 577.339 185.793 575.629 186.101V186.339C577.876 186.628 579.586 187.408 580.759 188.681C581.942 189.944 582.529 191.525 582.519 193.424C582.529 195.164 582.027 196.71 581.013 198.062C580.009 199.415 578.621 200.479 576.852 201.254C575.082 202.03 573.053 202.418 570.766 202.418Z" fill="black"/>
<path d="M570.766 202.418C568.539 202.418 566.555 202.035 564.815 201.269C563.085 200.494 561.718 199.43 560.714 198.077C559.719 196.715 559.207 195.144 559.178 193.364H565.68C565.72 194.11 565.964 194.766 566.411 195.333C566.869 195.89 567.475 196.322 568.231 196.631C568.987 196.939 569.837 197.093 570.781 197.093C571.766 197.093 572.636 196.919 573.391 196.571C574.147 196.223 574.739 195.741 575.166 195.124C575.594 194.508 575.808 193.797 575.808 192.991C575.808 192.176 575.579 191.455 575.121 190.829C574.674 190.192 574.028 189.695 573.183 189.337C572.347 188.979 571.353 188.8 570.2 188.8H567.351V184.058H570.2C571.174 184.058 572.034 183.888 572.78 183.55C573.536 183.212 574.122 182.745 574.54 182.148C574.957 181.542 575.166 180.836 575.166 180.031C575.166 179.265 574.982 178.594 574.614 178.017C574.256 177.43 573.749 176.973 573.093 176.645C572.447 176.317 571.691 176.153 570.826 176.153C569.951 176.153 569.151 176.312 568.425 176.63C567.699 176.938 567.117 177.381 566.68 177.957C566.242 178.534 566.009 179.21 565.979 179.986H559.789C559.819 178.226 560.321 176.675 561.295 175.332C562.27 173.99 563.582 172.941 565.233 172.185C566.893 171.42 568.768 171.037 570.856 171.037C572.964 171.037 574.808 171.42 576.389 172.185C577.97 172.951 579.198 173.985 580.073 175.288C580.958 176.58 581.396 178.032 581.386 179.643C581.396 181.353 580.864 182.78 579.79 183.923C578.726 185.067 577.339 185.793 575.629 186.101V186.339C577.876 186.628 579.586 187.408 580.759 188.681C581.942 189.944 582.529 191.525 582.519 193.424C582.529 195.164 582.027 196.71 581.013 198.062C580.009 199.415 578.621 200.479 576.852 201.254C575.082 202.03 573.053 202.418 570.766 202.418Z" fill="black"/>
<path d="M570.766 202.418C568.539 202.418 566.555 202.035 564.815 201.269C563.085 200.494 561.718 199.43 560.714 198.077C559.719 196.715 559.207 195.144 559.178 193.364H565.68C565.72 194.11 565.964 194.766 566.411 195.333C566.869 195.89 567.475 196.322 568.231 196.631C568.987 196.939 569.837 197.093 570.781 197.093C571.766 197.093 572.636 196.919 573.391 196.571C574.147 196.223 574.739 195.741 575.166 195.124C575.594 194.508 575.808 193.797 575.808 192.991C575.808 192.176 575.579 191.455 575.121 190.829C574.674 190.192 574.028 189.695 573.183 189.337C572.347 188.979 571.353 188.8 570.2 188.8H567.351V184.058H570.2C571.174 184.058 572.034 183.888 572.78 183.55C573.536 183.212 574.122 182.745 574.54 182.148C574.957 181.542 575.166 180.836 575.166 180.031C575.166 179.265 574.982 178.594 574.614 178.017C574.256 177.43 573.749 176.973 573.093 176.645C572.447 176.317 571.691 176.153 570.826 176.153C569.951 176.153 569.151 176.312 568.425 176.63C567.699 176.938 567.117 177.381 566.68 177.957C566.242 178.534 566.009 179.21 565.979 179.986H559.789C559.819 178.226 560.321 176.675 561.295 175.332C562.27 173.99 563.582 172.941 565.233 172.185C566.893 171.42 568.768 171.037 570.856 171.037C572.964 171.037 574.808 171.42 576.389 172.185C577.97 172.951 579.198 173.985 580.073 175.288C580.958 176.58 581.396 178.032 581.386 179.643C581.396 181.353 580.864 182.78 579.79 183.923C578.726 185.067 577.339 185.793 575.629 186.101V186.339C577.876 186.628 579.586 187.408 580.759 188.681C581.942 189.944 582.529 191.525 582.519 193.424C582.529 195.164 582.027 196.71 581.013 198.062C580.009 199.415 578.621 200.479 576.852 201.254C575.082 202.03 573.053 202.418 570.766 202.418Z" fill="black"/>
<path d="M570.766 202.418C568.539 202.418 566.555 202.035 564.815 201.269C563.085 200.494 561.718 199.43 560.714 198.077C559.719 196.715 559.207 195.144 559.178 193.364H565.68C565.72 194.11 565.964 194.766 566.411 195.333C566.869 195.89 567.475 196.322 568.231 196.631C568.987 196.939 569.837 197.093 570.781 197.093C571.766 197.093 572.636 196.919 573.391 196.571C574.147 196.223 574.739 195.741 575.166 195.124C575.594 194.508 575.808 193.797 575.808 192.991C575.808 192.176 575.579 191.455 575.121 190.829C574.674 190.192 574.028 189.695 573.183 189.337C572.347 188.979 571.353 188.8 570.2 188.8H567.351V184.058H570.2C571.174 184.058 572.034 183.888 572.78 183.55C573.536 183.212 574.122 182.745 574.54 182.148C574.957 181.542 575.166 180.836 575.166 180.031C575.166 179.265 574.982 178.594 574.614 178.017C574.256 177.43 573.749 176.973 573.093 176.645C572.447 176.317 571.691 176.153 570.826 176.153C569.951 176.153 569.151 176.312 568.425 176.63C567.699 176.938 567.117 177.381 566.68 177.957C566.242 178.534 566.009 179.21 565.979 179.986H559.789C559.819 178.226 560.321 176.675 561.295 175.332C562.27 173.99 563.582 172.941 565.233 172.185C566.893 171.42 568.768 171.037 570.856 171.037C572.964 171.037 574.808 171.42 576.389 172.185C577.97 172.951 579.198 173.985 580.073 175.288C580.958 176.58 581.396 178.032 581.386 179.643C581.396 181.353 580.864 182.78 579.79 183.923C578.726 185.067 577.339 185.793 575.629 186.101V186.339C577.876 186.628 579.586 187.408 580.759 188.681C581.942 189.944 582.529 191.525 582.519 193.424C582.529 195.164 582.027 196.71 581.013 198.062C580.009 199.415 578.621 200.479 576.852 201.254C575.082 202.03 573.053 202.418 570.766 202.418Z" fill="black"/>
<path d="M602.013 196.631V191.545L614.766 171.455H619.151V178.494H616.555L608.516 191.217V191.455H626.638V196.631H602.013ZM616.675 202V195.08L616.794 192.827V171.455H622.849V202H616.675Z" fill="black"/>
<path d="M602.013 196.631V191.545L614.766 171.455H619.151V178.494H616.555L608.516 191.217V191.455H626.638V196.631H602.013ZM616.675 202V195.08L616.794 192.827V171.455H622.849V202H616.675Z" fill="black"/>
<path d="M602.013 196.631V191.545L614.766 171.455H619.151V178.494H616.555L608.516 191.217V191.455H626.638V196.631H602.013ZM616.675 202V195.08L616.794 192.827V171.455H622.849V202H616.675Z" fill="black"/>
<path d="M602.013 196.631V191.545L614.766 171.455H619.151V178.494H616.555L608.516 191.217V191.455H626.638V196.631H602.013ZM616.675 202V195.08L616.794 192.827V171.455H622.849V202H616.675Z" fill="black"/>
<path d="M436 78.5L438.129 79.0322C445.866 80.9665 454.005 80.5437 461.5 77.8182L466.5 76" stroke="black" stroke-width="3" stroke-linecap="round"/>
<path d="M426.5 78.5L424.371 79.0322C416.634 80.9665 408.495 80.5437 401 77.8182L396 76" stroke="black" stroke-width="3" stroke-linecap="round"/>
<path d="M216 124L191 109.566L191 138.434L216 124ZM163 126.5L193.5 126.5L193.5 121.5L163 121.5L163 126.5Z" fill="#888888"/>
<path d="M539 124L514 109.566L514 138.434L539 124ZM486 126.5L516.5 126.5L516.5 121.5L486 121.5L486 126.5Z" fill="#888888"/>
<path d="M377 124L352 109.566L352 138.434L377 124ZM324 126.5L354.5 126.5L354.5 121.5L324 121.5L324 126.5Z" fill="#888888"/>
<path d="M328.291 102.377C327.136 102.484 326.114 102.295 325.227 101.811C324.344 101.327 323.628 100.571 323.077 99.5444C322.531 98.517 322.187 97.2508 322.047 95.746C321.903 94.2461 322.001 92.9464 322.343 91.8471C322.689 90.7473 323.249 89.8822 324.025 89.2517C324.804 88.6163 325.769 88.2432 326.92 88.1324C328.07 88.0216 329.087 88.204 329.968 88.6794C330.855 89.1544 331.572 89.8987 332.122 90.9122C332.671 91.9213 333.015 93.176 333.155 94.6764C333.301 96.1853 333.201 97.4963 332.856 98.6095C332.516 99.7223 331.959 100.601 331.185 101.245C330.411 101.888 329.446 102.266 328.291 102.377ZM328.059 99.9662C328.847 99.8903 329.438 99.4335 329.832 98.5957C330.226 97.758 330.344 96.5468 330.187 94.9622C330.086 93.919 329.895 93.0607 329.614 92.3874C329.336 91.7137 328.986 91.221 328.563 90.9092C328.144 90.5971 327.673 90.4662 327.149 90.5167C326.366 90.5921 325.777 91.0442 325.382 91.873C324.987 92.7019 324.863 93.8978 325.009 95.4608C325.111 96.5175 325.301 97.3894 325.579 98.0766C325.862 98.7588 326.215 99.2581 326.639 99.5743C327.062 99.886 327.535 100.017 328.059 99.9662ZM337.052 101.405C336.609 101.448 336.213 101.328 335.865 101.045C335.521 100.757 335.327 100.392 335.285 99.9483C335.243 99.5095 335.363 99.1183 335.646 98.7747C335.934 98.4307 336.299 98.2373 336.743 98.1946C337.173 98.1533 337.564 98.2738 337.916 98.5561C338.269 98.8385 338.466 99.1991 338.508 99.6379C338.537 99.9334 338.487 100.212 338.358 100.473C338.234 100.729 338.058 100.942 337.83 101.113C337.602 101.28 337.343 101.377 337.052 101.405ZM343.911 86.6861L345.235 100.441L342.327 100.721L341.269 89.7265L341.188 89.7342L338.228 92.0121L337.98 89.4331L341.178 86.9494L343.911 86.6861ZM353.546 99.8303C352.597 99.9217 351.734 99.8285 350.957 99.5509C350.185 99.2728 349.552 98.8479 349.058 98.2763C348.565 97.7047 348.271 97.0236 348.177 96.2328L350.998 95.9612C351.08 96.491 351.346 96.9015 351.794 97.1927C352.242 97.484 352.753 97.602 353.326 97.5468C353.783 97.5028 354.176 97.3633 354.506 97.1282C354.84 96.8882 355.088 96.5773 355.25 96.1957C355.416 95.8091 355.476 95.3786 355.431 94.904C355.384 94.4204 355.24 94.005 354.999 93.6576C354.762 93.3099 354.455 93.0503 354.077 92.8788C353.699 92.7073 353.279 92.6416 352.817 92.6815C352.414 92.7203 352.03 92.8409 351.666 93.0432C351.306 93.2451 351.034 93.4994 350.851 93.8062L348.221 93.5918L348.174 86.2757L356.583 85.466L356.811 87.8435L350.801 88.4223L350.776 91.9019L350.857 91.8942C351.066 91.5306 351.404 91.2134 351.87 90.9425C352.337 90.6717 352.872 90.5071 353.477 90.4489C354.305 90.3692 355.062 90.4928 355.749 90.8198C356.436 91.1468 357 91.6325 357.442 92.2769C357.883 92.9168 358.144 93.6779 358.224 94.5604C358.318 95.4868 358.182 96.3313 357.817 97.094C357.457 97.8518 356.909 98.4739 356.174 98.9604C355.443 99.442 354.567 99.732 353.546 99.8303ZM369.912 81.8781L370.85 91.6181C370.87 91.8261 370.8 91.8901 370.575 91.9309C370.348 91.9527 369.648 92.0201 368.965 92.0668C369.345 92.641 369.761 93.5935 369.916 94.2085C371.09 94.1145 371.915 93.9587 372.503 93.5204C373.109 93.0802 373.24 92.4568 373.14 91.4166L372.2 81.6577L369.912 81.8781ZM367.424 85.3817C367.324 87.5101 366.883 89.6713 366.025 91.071C366.596 91.2451 367.611 91.6818 368.075 91.9425C368.9 90.3933 369.428 87.9564 369.615 85.5334L367.424 85.3817ZM373.028 85.3002C374.043 86.9203 375.003 89.1567 375.355 90.6307L377.385 89.7099C376.975 88.2224 375.986 86.0843 374.914 84.4696L373.028 85.3002ZM374.312 90.9029C373.508 94.8361 371.135 96.7634 366.841 97.9595C367.367 98.4624 367.98 99.2814 368.273 99.9404C373.037 98.2791 375.655 95.9273 376.559 91.2401L374.312 90.9029ZM361.682 84.4266L363.221 100.408L365.434 100.195L363.895 84.2135L361.682 84.4266ZM359.301 88.2444L359.505 90.3626L366.446 89.6943L366.242 87.5761L359.301 88.2444ZM362.239 88.8205C361.836 90.978 360.776 93.8478 359.598 95.4883C360.012 96.0211 360.595 96.9194 360.867 97.5613C362.143 95.5487 363.161 92.053 363.619 89.2793L362.239 88.8205ZM364.482 82.5728C363.089 83.3749 360.797 84.1492 358.732 84.7107C359.042 85.158 359.399 85.8872 359.541 86.3698C361.726 85.8731 364.306 85.1093 366.164 84.186L364.482 82.5728ZM364.434 90.4034L363.536 91.387C364.199 92.1249 365.499 93.7366 366.041 94.6007L367.156 92.6991C366.754 92.2987 364.945 90.755 364.434 90.4034Z" fill="#888888"/>
</svg>
