<svg width="700" height="250" viewBox="0 0 700 250" fill="none" xmlns="http://www.w3.org/2000/svg">
<circle cx="107" cy="82" r="48.5" fill="white" stroke="#222222" stroke-width="3"/>
<path d="M103.417 73C103.417 83.504 96.4594 91.5 88.4583 91.5C80.4573 91.5 73.5 83.504 73.5 73C73.5 62.496 80.4573 54.5 88.4583 54.5C96.4594 54.5 103.417 62.496 103.417 73Z" fill="white" stroke="#222222" stroke-width="3"/>
<circle cx="96" cy="73" r="5" fill="#222222"/>
<path d="M140.417 73C140.417 83.504 133.459 91.5 125.458 91.5C117.457 91.5 110.5 83.504 110.5 73C110.5 62.496 117.457 54.5 125.458 54.5C133.459 54.5 140.417 62.496 140.417 73Z" fill="white" stroke="#222222" stroke-width="3"/>
<circle cx="118" cy="73" r="5" fill="#222222"/>
<circle cx="107" cy="82" r="48.5" fill="white" stroke="#222222" stroke-width="3"/>
<path d="M103.417 73C103.417 83.504 96.4594 91.5 88.4583 91.5C80.4573 91.5 73.5 83.504 73.5 73C73.5 62.496 80.4573 54.5 88.4583 54.5C96.4594 54.5 103.417 62.496 103.417 73Z" fill="white" stroke="#222222" stroke-width="3"/>
<circle cx="96" cy="73" r="5" fill="#222222"/>
<path d="M140.417 73C140.417 83.504 133.459 91.5 125.458 91.5C117.457 91.5 110.5 83.504 110.5 73C110.5 62.496 117.457 54.5 125.458 54.5C133.459 54.5 140.417 62.496 140.417 73Z" fill="white" stroke="#222222" stroke-width="3"/>
<circle cx="118" cy="73" r="5" fill="#222222"/>
<circle cx="269" cy="82" r="48.5" fill="white" stroke="#222222" stroke-width="3"/>
<path d="M97.5115 158.073L103.5 159.694V211.04L98.2954 209.631C89.2705 207.188 79.7509 207.248 70.7575 209.804L66.5 211.014V159.679L71.5777 158.236C80.0472 155.829 89.0123 155.772 97.5115 158.073Z" fill="white" stroke="#222222" stroke-width="3"/>
<path d="M141.511 158.073L147.5 159.694V211.04L142.295 209.631C133.271 207.188 123.751 207.248 114.757 209.804L110.5 211.014V159.679L115.578 158.236C124.047 155.829 133.012 155.772 141.511 158.073Z" fill="white" stroke="#222222" stroke-width="3"/>
<path d="M90.1385 167.455V198H84.6051V172.839H84.4261L77.282 177.403V172.332L84.8736 167.455H90.1385Z" fill="#222222"/>
<path d="M90.1385 167.455V198H84.6051V172.839H84.4261L77.282 177.403V172.332L84.8736 167.455H90.1385Z" fill="#222222"/>
<path d="M90.1385 167.455V198H84.6051V172.839H84.4261L77.282 177.403V172.332L84.8736 167.455H90.1385Z" fill="#222222"/>
<path d="M90.1385 167.455V198H84.6051V172.839H84.4261L77.282 177.403V172.332L84.8736 167.455H90.1385Z" fill="#222222"/>
<path d="M118.714 198V194.003L129.319 183.607C130.333 182.583 131.178 181.673 131.854 180.878C132.531 180.082 133.038 179.312 133.376 178.566C133.714 177.82 133.883 177.025 133.883 176.18C133.883 175.215 133.664 174.39 133.227 173.704C132.789 173.008 132.188 172.471 131.422 172.093C130.656 171.715 129.786 171.526 128.812 171.526C127.808 171.526 126.928 171.735 126.172 172.153C125.416 172.56 124.83 173.142 124.412 173.898C124.004 174.653 123.8 175.553 123.8 176.597H118.536C118.536 174.658 118.978 172.973 119.863 171.541C120.748 170.109 121.966 169.001 123.517 168.215C125.078 167.43 126.868 167.037 128.886 167.037C130.935 167.037 132.734 167.42 134.286 168.185C135.837 168.951 137.04 170 137.895 171.332C138.76 172.665 139.192 174.186 139.192 175.896C139.192 177.04 138.974 178.163 138.536 179.267C138.099 180.371 137.328 181.594 136.224 182.936C135.131 184.278 133.594 185.904 131.616 187.813L126.351 193.168V193.376H139.655V198H118.714Z" fill="#222222"/>
<path d="M118.714 198V194.003L129.319 183.607C130.333 182.583 131.178 181.673 131.854 180.878C132.531 180.082 133.038 179.312 133.376 178.566C133.714 177.82 133.883 177.025 133.883 176.18C133.883 175.215 133.664 174.39 133.227 173.704C132.789 173.008 132.188 172.471 131.422 172.093C130.656 171.715 129.786 171.526 128.812 171.526C127.808 171.526 126.928 171.735 126.172 172.153C125.416 172.56 124.83 173.142 124.412 173.898C124.004 174.653 123.8 175.553 123.8 176.597H118.536C118.536 174.658 118.978 172.973 119.863 171.541C120.748 170.109 121.966 169.001 123.517 168.215C125.078 167.43 126.868 167.037 128.886 167.037C130.935 167.037 132.734 167.42 134.286 168.185C135.837 168.951 137.04 170 137.895 171.332C138.76 172.665 139.192 174.186 139.192 175.896C139.192 177.04 138.974 178.163 138.536 179.267C138.099 180.371 137.328 181.594 136.224 182.936C135.131 184.278 133.594 185.904 131.616 187.813L126.351 193.168V193.376H139.655V198H118.714Z" fill="#222222"/>
<path d="M118.714 198V194.003L129.319 183.607C130.333 182.583 131.178 181.673 131.854 180.878C132.531 180.082 133.038 179.312 133.376 178.566C133.714 177.82 133.883 177.025 133.883 176.18C133.883 175.215 133.664 174.39 133.227 173.704C132.789 173.008 132.188 172.471 131.422 172.093C130.656 171.715 129.786 171.526 128.812 171.526C127.808 171.526 126.928 171.735 126.172 172.153C125.416 172.56 124.83 173.142 124.412 173.898C124.004 174.653 123.8 175.553 123.8 176.597H118.536C118.536 174.658 118.978 172.973 119.863 171.541C120.748 170.109 121.966 169.001 123.517 168.215C125.078 167.43 126.868 167.037 128.886 167.037C130.935 167.037 132.734 167.42 134.286 168.185C135.837 168.951 137.04 170 137.895 171.332C138.76 172.665 139.192 174.186 139.192 175.896C139.192 177.04 138.974 178.163 138.536 179.267C138.099 180.371 137.328 181.594 136.224 182.936C135.131 184.278 133.594 185.904 131.616 187.813L126.351 193.168V193.376H139.655V198H118.714Z" fill="#222222"/>
<path d="M118.714 198V194.003L129.319 183.607C130.333 182.583 131.178 181.673 131.854 180.878C132.531 180.082 133.038 179.312 133.376 178.566C133.714 177.82 133.883 177.025 133.883 176.18C133.883 175.215 133.664 174.39 133.227 173.704C132.789 173.008 132.188 172.471 131.422 172.093C130.656 171.715 129.786 171.526 128.812 171.526C127.808 171.526 126.928 171.735 126.172 172.153C125.416 172.56 124.83 173.142 124.412 173.898C124.004 174.653 123.8 175.553 123.8 176.597H118.536C118.536 174.658 118.978 172.973 119.863 171.541C120.748 170.109 121.966 169.001 123.517 168.215C125.078 167.43 126.868 167.037 128.886 167.037C130.935 167.037 132.734 167.42 134.286 168.185C135.837 168.951 137.04 170 137.895 171.332C138.76 172.665 139.192 174.186 139.192 175.896C139.192 177.04 138.974 178.163 138.536 179.267C138.099 180.371 137.328 181.594 136.224 182.936C135.131 184.278 133.594 185.904 131.616 187.813L126.351 193.168V193.376H139.655V198H118.714Z" fill="#222222"/>
<path d="M259.511 158.073L265.5 159.694V211.04L260.295 209.631C251.271 207.188 241.751 207.248 232.757 209.804L228.5 211.014V159.679L233.578 158.236C242.047 155.829 251.012 155.772 259.511 158.073Z" fill="white" stroke="#222222" stroke-width="3"/>
<path d="M303.511 158.073L309.5 159.694V211.04L304.295 209.631C295.271 207.188 285.751 207.248 276.757 209.804L272.5 211.014V159.679L277.578 158.236C286.047 155.829 295.012 155.772 303.511 158.073Z" fill="white" stroke="#222222" stroke-width="3"/>
<path d="M252.138 167.455V198H246.605V172.839H246.426L239.282 177.403V172.332L246.874 167.455H252.138Z" fill="#222222"/>
<path d="M252.138 167.455V198H246.605V172.839H246.426L239.282 177.403V172.332L246.874 167.455H252.138Z" fill="#222222"/>
<path d="M252.138 167.455V198H246.605V172.839H246.426L239.282 177.403V172.332L246.874 167.455H252.138Z" fill="#222222"/>
<path d="M252.138 167.455V198H246.605V172.839H246.426L239.282 177.403V172.332L246.874 167.455H252.138Z" fill="#222222"/>
<path d="M280.714 198V194.003L291.319 183.607C292.333 182.583 293.178 181.673 293.854 180.878C294.531 180.082 295.038 179.312 295.376 178.566C295.714 177.82 295.883 177.025 295.883 176.18C295.883 175.215 295.664 174.39 295.227 173.704C294.789 173.008 294.188 172.471 293.422 172.093C292.656 171.715 291.786 171.526 290.812 171.526C289.808 171.526 288.928 171.735 288.172 172.153C287.416 172.56 286.83 173.142 286.412 173.898C286.004 174.653 285.8 175.553 285.8 176.597H280.536C280.536 174.658 280.978 172.973 281.863 171.541C282.748 170.109 283.966 169.001 285.517 168.215C287.078 167.43 288.868 167.037 290.886 167.037C292.935 167.037 294.734 167.42 296.286 168.185C297.837 168.951 299.04 170 299.895 171.332C300.76 172.665 301.192 174.186 301.192 175.896C301.192 177.04 300.974 178.163 300.536 179.267C300.099 180.371 299.328 181.594 298.224 182.936C297.131 184.278 295.594 185.904 293.616 187.813L288.351 193.168V193.376H301.655V198H280.714Z" fill="#222222"/>
<path d="M280.714 198V194.003L291.319 183.607C292.333 182.583 293.178 181.673 293.854 180.878C294.531 180.082 295.038 179.312 295.376 178.566C295.714 177.82 295.883 177.025 295.883 176.18C295.883 175.215 295.664 174.39 295.227 173.704C294.789 173.008 294.188 172.471 293.422 172.093C292.656 171.715 291.786 171.526 290.812 171.526C289.808 171.526 288.928 171.735 288.172 172.153C287.416 172.56 286.83 173.142 286.412 173.898C286.004 174.653 285.8 175.553 285.8 176.597H280.536C280.536 174.658 280.978 172.973 281.863 171.541C282.748 170.109 283.966 169.001 285.517 168.215C287.078 167.43 288.868 167.037 290.886 167.037C292.935 167.037 294.734 167.42 296.286 168.185C297.837 168.951 299.04 170 299.895 171.332C300.76 172.665 301.192 174.186 301.192 175.896C301.192 177.04 300.974 178.163 300.536 179.267C300.099 180.371 299.328 181.594 298.224 182.936C297.131 184.278 295.594 185.904 293.616 187.813L288.351 193.168V193.376H301.655V198H280.714Z" fill="#222222"/>
<path d="M280.714 198V194.003L291.319 183.607C292.333 182.583 293.178 181.673 293.854 180.878C294.531 180.082 295.038 179.312 295.376 178.566C295.714 177.82 295.883 177.025 295.883 176.18C295.883 175.215 295.664 174.39 295.227 173.704C294.789 173.008 294.188 172.471 293.422 172.093C292.656 171.715 291.786 171.526 290.812 171.526C289.808 171.526 288.928 171.735 288.172 172.153C287.416 172.56 286.83 173.142 286.412 173.898C286.004 174.653 285.8 175.553 285.8 176.597H280.536C280.536 174.658 280.978 172.973 281.863 171.541C282.748 170.109 283.966 169.001 285.517 168.215C287.078 167.43 288.868 167.037 290.886 167.037C292.935 167.037 294.734 167.42 296.286 168.185C297.837 168.951 299.04 170 299.895 171.332C300.76 172.665 301.192 174.186 301.192 175.896C301.192 177.04 300.974 178.163 300.536 179.267C300.099 180.371 299.328 181.594 298.224 182.936C297.131 184.278 295.594 185.904 293.616 187.813L288.351 193.168V193.376H301.655V198H280.714Z" fill="#222222"/>
<path d="M280.714 198V194.003L291.319 183.607C292.333 182.583 293.178 181.673 293.854 180.878C294.531 180.082 295.038 179.312 295.376 178.566C295.714 177.82 295.883 177.025 295.883 176.18C295.883 175.215 295.664 174.39 295.227 173.704C294.789 173.008 294.188 172.471 293.422 172.093C292.656 171.715 291.786 171.526 290.812 171.526C289.808 171.526 288.928 171.735 288.172 172.153C287.416 172.56 286.83 173.142 286.412 173.898C286.004 174.653 285.8 175.553 285.8 176.597H280.536C280.536 174.658 280.978 172.973 281.863 171.541C282.748 170.109 283.966 169.001 285.517 168.215C287.078 167.43 288.868 167.037 290.886 167.037C292.935 167.037 294.734 167.42 296.286 168.185C297.837 168.951 299.04 170 299.895 171.332C300.76 172.665 301.192 174.186 301.192 175.896C301.192 177.04 300.974 178.163 300.536 179.267C300.099 180.371 299.328 181.594 298.224 182.936C297.131 184.278 295.594 185.904 293.616 187.813L288.351 193.168V193.376H301.655V198H280.714Z" fill="#222222"/>
<circle cx="593" cy="82" r="48.5" fill="white" stroke="#222222" stroke-width="3"/>
<path d="M589.417 73C589.417 83.504 582.459 91.5 574.458 91.5C566.457 91.5 559.5 83.504 559.5 73C559.5 62.496 566.457 54.5 574.458 54.5C582.459 54.5 589.417 62.496 589.417 73Z" fill="white" stroke="#222222" stroke-width="3"/>
<circle cx="582" cy="73" r="5" fill="#222222"/>
<path d="M626.417 73C626.417 83.504 619.459 91.5 611.458 91.5C603.457 91.5 596.5 83.504 596.5 73C596.5 62.496 603.457 54.5 611.458 54.5C619.459 54.5 626.417 62.496 626.417 73Z" fill="white" stroke="#222222" stroke-width="3"/>
<circle cx="604" cy="73" r="5" fill="#222222"/>
<circle cx="593" cy="82" r="48.5" fill="white" stroke="#222222" stroke-width="3"/>
<path d="M589.417 73C589.417 83.504 582.459 91.5 574.458 91.5C566.457 91.5 559.5 83.504 559.5 73C559.5 62.496 566.457 54.5 574.458 54.5C582.459 54.5 589.417 62.496 589.417 73Z" fill="white" stroke="#222222" stroke-width="3"/>
<circle cx="582" cy="73" r="5" fill="#222222"/>
<path d="M626.417 73C626.417 83.504 619.459 91.5 611.458 91.5C603.457 91.5 596.5 83.504 596.5 73C596.5 62.496 603.457 54.5 611.458 54.5C619.459 54.5 626.417 62.496 626.417 73Z" fill="white" stroke="#222222" stroke-width="3"/>
<circle cx="604" cy="73" r="5" fill="#222222"/>
<path d="M274 78.5L276.129 79.0322C283.866 80.9665 292.005 80.5437 299.5 77.8182L304.5 76" stroke="#222222" stroke-width="3" stroke-linecap="round"/>
<path d="M264.5 78.5L262.371 79.0322C254.634 80.9665 246.495 80.5437 239 77.8182L234 76" stroke="#222222" stroke-width="3" stroke-linecap="round"/>
<circle cx="431" cy="82" r="48.5" fill="white" stroke="#222222" stroke-width="3"/>
<path d="M421.511 158.073L427.5 159.694V211.04L422.295 209.631C413.271 207.188 403.751 207.248 394.757 209.804L390.5 211.014V159.679L395.578 158.236C404.047 155.829 413.012 155.772 421.511 158.073Z" fill="white" stroke="#222222" stroke-width="3"/>
<path d="M465.511 158.073L471.5 159.694V211.04L466.295 209.631C457.271 207.188 447.751 207.248 438.757 209.804L434.5 211.014V159.679L439.578 158.236C448.047 155.829 457.012 155.772 465.511 158.073Z" fill="white" stroke="#222222" stroke-width="3"/>
<path d="M408.677 198.418C406.529 198.418 404.62 198.05 402.95 197.314C401.289 196.578 399.977 195.554 399.012 194.241C398.048 192.929 397.536 191.413 397.476 189.692H403.084C403.134 190.518 403.407 191.239 403.904 191.855C404.401 192.462 405.063 192.934 405.888 193.272C406.713 193.61 407.638 193.779 408.662 193.779C409.756 193.779 410.725 193.59 411.57 193.212C412.415 192.825 413.077 192.288 413.554 191.602C414.031 190.915 414.265 190.125 414.255 189.23C414.265 188.305 414.026 187.49 413.539 186.784C413.052 186.078 412.346 185.526 411.421 185.129C410.506 184.731 409.403 184.532 408.11 184.532H405.411V180.266H408.11C409.174 180.266 410.104 180.082 410.899 179.714C411.705 179.347 412.336 178.83 412.793 178.163C413.251 177.487 413.474 176.707 413.464 175.822C413.474 174.957 413.281 174.206 412.883 173.57C412.495 172.923 411.943 172.421 411.227 172.063C410.521 171.705 409.691 171.526 408.737 171.526C407.802 171.526 406.937 171.695 406.141 172.033C405.346 172.371 404.705 172.854 404.217 173.48C403.73 174.097 403.472 174.832 403.442 175.688H398.117C398.157 173.977 398.649 172.476 399.594 171.183C400.548 169.881 401.821 168.866 403.412 168.141C405.003 167.405 406.788 167.037 408.766 167.037C410.805 167.037 412.575 167.42 414.076 168.185C415.587 168.941 416.756 169.96 417.581 171.243C418.406 172.526 418.819 173.942 418.819 175.494C418.829 177.214 418.322 178.656 417.298 179.819C416.283 180.982 414.951 181.743 413.3 182.101V182.339C415.448 182.638 417.094 183.433 418.237 184.726C419.391 186.009 419.962 187.604 419.952 189.513C419.952 191.224 419.465 192.755 418.491 194.107C417.526 195.45 416.194 196.504 414.494 197.269C412.803 198.035 410.864 198.418 408.677 198.418Z" fill="#222222"/>
<path d="M408.677 198.418C406.529 198.418 404.62 198.05 402.95 197.314C401.289 196.578 399.977 195.554 399.012 194.241C398.048 192.929 397.536 191.413 397.476 189.692H403.084C403.134 190.518 403.407 191.239 403.904 191.855C404.401 192.462 405.063 192.934 405.888 193.272C406.713 193.61 407.638 193.779 408.662 193.779C409.756 193.779 410.725 193.59 411.57 193.212C412.415 192.825 413.077 192.288 413.554 191.602C414.031 190.915 414.265 190.125 414.255 189.23C414.265 188.305 414.026 187.49 413.539 186.784C413.052 186.078 412.346 185.526 411.421 185.129C410.506 184.731 409.403 184.532 408.11 184.532H405.411V180.266H408.11C409.174 180.266 410.104 180.082 410.899 179.714C411.705 179.347 412.336 178.83 412.793 178.163C413.251 177.487 413.474 176.707 413.464 175.822C413.474 174.957 413.281 174.206 412.883 173.57C412.495 172.923 411.943 172.421 411.227 172.063C410.521 171.705 409.691 171.526 408.737 171.526C407.802 171.526 406.937 171.695 406.141 172.033C405.346 172.371 404.705 172.854 404.217 173.48C403.73 174.097 403.472 174.832 403.442 175.688H398.117C398.157 173.977 398.649 172.476 399.594 171.183C400.548 169.881 401.821 168.866 403.412 168.141C405.003 167.405 406.788 167.037 408.766 167.037C410.805 167.037 412.575 167.42 414.076 168.185C415.587 168.941 416.756 169.96 417.581 171.243C418.406 172.526 418.819 173.942 418.819 175.494C418.829 177.214 418.322 178.656 417.298 179.819C416.283 180.982 414.951 181.743 413.3 182.101V182.339C415.448 182.638 417.094 183.433 418.237 184.726C419.391 186.009 419.962 187.604 419.952 189.513C419.952 191.224 419.465 192.755 418.491 194.107C417.526 195.45 416.194 196.504 414.494 197.269C412.803 198.035 410.864 198.418 408.677 198.418Z" fill="#222222"/>
<path d="M408.677 198.418C406.529 198.418 404.62 198.05 402.95 197.314C401.289 196.578 399.977 195.554 399.012 194.241C398.048 192.929 397.536 191.413 397.476 189.692H403.084C403.134 190.518 403.407 191.239 403.904 191.855C404.401 192.462 405.063 192.934 405.888 193.272C406.713 193.61 407.638 193.779 408.662 193.779C409.756 193.779 410.725 193.59 411.57 193.212C412.415 192.825 413.077 192.288 413.554 191.602C414.031 190.915 414.265 190.125 414.255 189.23C414.265 188.305 414.026 187.49 413.539 186.784C413.052 186.078 412.346 185.526 411.421 185.129C410.506 184.731 409.403 184.532 408.11 184.532H405.411V180.266H408.11C409.174 180.266 410.104 180.082 410.899 179.714C411.705 179.347 412.336 178.83 412.793 178.163C413.251 177.487 413.474 176.707 413.464 175.822C413.474 174.957 413.281 174.206 412.883 173.57C412.495 172.923 411.943 172.421 411.227 172.063C410.521 171.705 409.691 171.526 408.737 171.526C407.802 171.526 406.937 171.695 406.141 172.033C405.346 172.371 404.705 172.854 404.217 173.48C403.73 174.097 403.472 174.832 403.442 175.688H398.117C398.157 173.977 398.649 172.476 399.594 171.183C400.548 169.881 401.821 168.866 403.412 168.141C405.003 167.405 406.788 167.037 408.766 167.037C410.805 167.037 412.575 167.42 414.076 168.185C415.587 168.941 416.756 169.96 417.581 171.243C418.406 172.526 418.819 173.942 418.819 175.494C418.829 177.214 418.322 178.656 417.298 179.819C416.283 180.982 414.951 181.743 413.3 182.101V182.339C415.448 182.638 417.094 183.433 418.237 184.726C419.391 186.009 419.962 187.604 419.952 189.513C419.952 191.224 419.465 192.755 418.491 194.107C417.526 195.45 416.194 196.504 414.494 197.269C412.803 198.035 410.864 198.418 408.677 198.418Z" fill="#222222"/>
<path d="M408.677 198.418C406.529 198.418 404.62 198.05 402.95 197.314C401.289 196.578 399.977 195.554 399.012 194.241C398.048 192.929 397.536 191.413 397.476 189.692H403.084C403.134 190.518 403.407 191.239 403.904 191.855C404.401 192.462 405.063 192.934 405.888 193.272C406.713 193.61 407.638 193.779 408.662 193.779C409.756 193.779 410.725 193.59 411.57 193.212C412.415 192.825 413.077 192.288 413.554 191.602C414.031 190.915 414.265 190.125 414.255 189.23C414.265 188.305 414.026 187.49 413.539 186.784C413.052 186.078 412.346 185.526 411.421 185.129C410.506 184.731 409.403 184.532 408.11 184.532H405.411V180.266H408.11C409.174 180.266 410.104 180.082 410.899 179.714C411.705 179.347 412.336 178.83 412.793 178.163C413.251 177.487 413.474 176.707 413.464 175.822C413.474 174.957 413.281 174.206 412.883 173.57C412.495 172.923 411.943 172.421 411.227 172.063C410.521 171.705 409.691 171.526 408.737 171.526C407.802 171.526 406.937 171.695 406.141 172.033C405.346 172.371 404.705 172.854 404.217 173.48C403.73 174.097 403.472 174.832 403.442 175.688H398.117C398.157 173.977 398.649 172.476 399.594 171.183C400.548 169.881 401.821 168.866 403.412 168.141C405.003 167.405 406.788 167.037 408.766 167.037C410.805 167.037 412.575 167.42 414.076 168.185C415.587 168.941 416.756 169.96 417.581 171.243C418.406 172.526 418.819 173.942 418.819 175.494C418.829 177.214 418.322 178.656 417.298 179.819C416.283 180.982 414.951 181.743 413.3 182.101V182.339C415.448 182.638 417.094 183.433 418.237 184.726C419.391 186.009 419.962 187.604 419.952 189.513C419.952 191.224 419.465 192.755 418.491 194.107C417.526 195.45 416.194 196.504 414.494 197.269C412.803 198.035 410.864 198.418 408.677 198.418Z" fill="#222222"/>
<path d="M441.163 192.332V187.933L454.124 167.455H457.793V173.719H455.555L446.83 187.545V187.783H464.922V192.332H441.163ZM455.734 198V190.99L455.794 189.021V167.455H461.014V198H455.734Z" fill="#222222"/>
<path d="M441.163 192.332V187.933L454.124 167.455H457.793V173.719H455.555L446.83 187.545V187.783H464.922V192.332H441.163ZM455.734 198V190.99L455.794 189.021V167.455H461.014V198H455.734Z" fill="#222222"/>
<path d="M441.163 192.332V187.933L454.124 167.455H457.793V173.719H455.555L446.83 187.545V187.783H464.922V192.332H441.163ZM455.734 198V190.99L455.794 189.021V167.455H461.014V198H455.734Z" fill="#222222"/>
<path d="M441.163 192.332V187.933L454.124 167.455H457.793V173.719H455.555L446.83 187.545V187.783H464.922V192.332H441.163ZM455.734 198V190.99L455.794 189.021V167.455H461.014V198H455.734Z" fill="#222222"/>
<path d="M583.511 158.073L589.5 159.694V211.04L584.295 209.631C575.271 207.188 565.751 207.248 556.757 209.804L552.5 211.014V159.679L557.578 158.236C566.047 155.829 575.012 155.772 583.511 158.073Z" fill="white" stroke="#222222" stroke-width="3"/>
<path d="M627.511 158.073L633.5 159.694V211.04L628.295 209.631C619.271 207.188 609.751 207.248 600.757 209.804L596.5 211.014V159.679L601.578 158.236C610.047 155.829 619.012 155.772 627.511 158.073Z" fill="white" stroke="#222222" stroke-width="3"/>
<path d="M570.677 198.418C568.529 198.418 566.62 198.05 564.95 197.314C563.289 196.578 561.977 195.554 561.012 194.241C560.048 192.929 559.536 191.413 559.476 189.692H565.084C565.134 190.518 565.407 191.239 565.904 191.855C566.401 192.462 567.063 192.934 567.888 193.272C568.713 193.61 569.638 193.779 570.662 193.779C571.756 193.779 572.725 193.59 573.57 193.212C574.415 192.825 575.077 192.288 575.554 191.602C576.031 190.915 576.265 190.125 576.255 189.23C576.265 188.305 576.026 187.49 575.539 186.784C575.052 186.078 574.346 185.526 573.421 185.129C572.506 184.731 571.403 184.532 570.11 184.532H567.411V180.266H570.11C571.174 180.266 572.104 180.082 572.899 179.714C573.705 179.347 574.336 178.83 574.793 178.163C575.251 177.487 575.474 176.707 575.464 175.822C575.474 174.957 575.281 174.206 574.883 173.57C574.495 172.923 573.943 172.421 573.227 172.063C572.521 171.705 571.691 171.526 570.737 171.526C569.802 171.526 568.937 171.695 568.141 172.033C567.346 172.371 566.705 172.854 566.217 173.48C565.73 174.097 565.472 174.832 565.442 175.688H560.117C560.157 173.977 560.649 172.476 561.594 171.183C562.548 169.881 563.821 168.866 565.412 168.141C567.003 167.405 568.788 167.037 570.766 167.037C572.805 167.037 574.575 167.42 576.076 168.185C577.587 168.941 578.756 169.96 579.581 171.243C580.406 172.526 580.819 173.942 580.819 175.494C580.829 177.214 580.322 178.656 579.298 179.819C578.283 180.982 576.951 181.743 575.3 182.101V182.339C577.448 182.638 579.094 183.433 580.237 184.726C581.391 186.009 581.962 187.604 581.952 189.513C581.952 191.224 581.465 192.755 580.491 194.107C579.526 195.45 578.194 196.504 576.494 197.269C574.803 198.035 572.864 198.418 570.677 198.418Z" fill="#222222"/>
<path d="M570.677 198.418C568.529 198.418 566.62 198.05 564.95 197.314C563.289 196.578 561.977 195.554 561.012 194.241C560.048 192.929 559.536 191.413 559.476 189.692H565.084C565.134 190.518 565.407 191.239 565.904 191.855C566.401 192.462 567.063 192.934 567.888 193.272C568.713 193.61 569.638 193.779 570.662 193.779C571.756 193.779 572.725 193.59 573.57 193.212C574.415 192.825 575.077 192.288 575.554 191.602C576.031 190.915 576.265 190.125 576.255 189.23C576.265 188.305 576.026 187.49 575.539 186.784C575.052 186.078 574.346 185.526 573.421 185.129C572.506 184.731 571.403 184.532 570.11 184.532H567.411V180.266H570.11C571.174 180.266 572.104 180.082 572.899 179.714C573.705 179.347 574.336 178.83 574.793 178.163C575.251 177.487 575.474 176.707 575.464 175.822C575.474 174.957 575.281 174.206 574.883 173.57C574.495 172.923 573.943 172.421 573.227 172.063C572.521 171.705 571.691 171.526 570.737 171.526C569.802 171.526 568.937 171.695 568.141 172.033C567.346 172.371 566.705 172.854 566.217 173.48C565.73 174.097 565.472 174.832 565.442 175.688H560.117C560.157 173.977 560.649 172.476 561.594 171.183C562.548 169.881 563.821 168.866 565.412 168.141C567.003 167.405 568.788 167.037 570.766 167.037C572.805 167.037 574.575 167.42 576.076 168.185C577.587 168.941 578.756 169.96 579.581 171.243C580.406 172.526 580.819 173.942 580.819 175.494C580.829 177.214 580.322 178.656 579.298 179.819C578.283 180.982 576.951 181.743 575.3 182.101V182.339C577.448 182.638 579.094 183.433 580.237 184.726C581.391 186.009 581.962 187.604 581.952 189.513C581.952 191.224 581.465 192.755 580.491 194.107C579.526 195.45 578.194 196.504 576.494 197.269C574.803 198.035 572.864 198.418 570.677 198.418Z" fill="#222222"/>
<path d="M570.677 198.418C568.529 198.418 566.62 198.05 564.95 197.314C563.289 196.578 561.977 195.554 561.012 194.241C560.048 192.929 559.536 191.413 559.476 189.692H565.084C565.134 190.518 565.407 191.239 565.904 191.855C566.401 192.462 567.063 192.934 567.888 193.272C568.713 193.61 569.638 193.779 570.662 193.779C571.756 193.779 572.725 193.59 573.57 193.212C574.415 192.825 575.077 192.288 575.554 191.602C576.031 190.915 576.265 190.125 576.255 189.23C576.265 188.305 576.026 187.49 575.539 186.784C575.052 186.078 574.346 185.526 573.421 185.129C572.506 184.731 571.403 184.532 570.11 184.532H567.411V180.266H570.11C571.174 180.266 572.104 180.082 572.899 179.714C573.705 179.347 574.336 178.83 574.793 178.163C575.251 177.487 575.474 176.707 575.464 175.822C575.474 174.957 575.281 174.206 574.883 173.57C574.495 172.923 573.943 172.421 573.227 172.063C572.521 171.705 571.691 171.526 570.737 171.526C569.802 171.526 568.937 171.695 568.141 172.033C567.346 172.371 566.705 172.854 566.217 173.48C565.73 174.097 565.472 174.832 565.442 175.688H560.117C560.157 173.977 560.649 172.476 561.594 171.183C562.548 169.881 563.821 168.866 565.412 168.141C567.003 167.405 568.788 167.037 570.766 167.037C572.805 167.037 574.575 167.42 576.076 168.185C577.587 168.941 578.756 169.96 579.581 171.243C580.406 172.526 580.819 173.942 580.819 175.494C580.829 177.214 580.322 178.656 579.298 179.819C578.283 180.982 576.951 181.743 575.3 182.101V182.339C577.448 182.638 579.094 183.433 580.237 184.726C581.391 186.009 581.962 187.604 581.952 189.513C581.952 191.224 581.465 192.755 580.491 194.107C579.526 195.45 578.194 196.504 576.494 197.269C574.803 198.035 572.864 198.418 570.677 198.418Z" fill="#222222"/>
<path d="M570.677 198.418C568.529 198.418 566.62 198.05 564.95 197.314C563.289 196.578 561.977 195.554 561.012 194.241C560.048 192.929 559.536 191.413 559.476 189.692H565.084C565.134 190.518 565.407 191.239 565.904 191.855C566.401 192.462 567.063 192.934 567.888 193.272C568.713 193.61 569.638 193.779 570.662 193.779C571.756 193.779 572.725 193.59 573.57 193.212C574.415 192.825 575.077 192.288 575.554 191.602C576.031 190.915 576.265 190.125 576.255 189.23C576.265 188.305 576.026 187.49 575.539 186.784C575.052 186.078 574.346 185.526 573.421 185.129C572.506 184.731 571.403 184.532 570.11 184.532H567.411V180.266H570.11C571.174 180.266 572.104 180.082 572.899 179.714C573.705 179.347 574.336 178.83 574.793 178.163C575.251 177.487 575.474 176.707 575.464 175.822C575.474 174.957 575.281 174.206 574.883 173.57C574.495 172.923 573.943 172.421 573.227 172.063C572.521 171.705 571.691 171.526 570.737 171.526C569.802 171.526 568.937 171.695 568.141 172.033C567.346 172.371 566.705 172.854 566.217 173.48C565.73 174.097 565.472 174.832 565.442 175.688H560.117C560.157 173.977 560.649 172.476 561.594 171.183C562.548 169.881 563.821 168.866 565.412 168.141C567.003 167.405 568.788 167.037 570.766 167.037C572.805 167.037 574.575 167.42 576.076 168.185C577.587 168.941 578.756 169.96 579.581 171.243C580.406 172.526 580.819 173.942 580.819 175.494C580.829 177.214 580.322 178.656 579.298 179.819C578.283 180.982 576.951 181.743 575.3 182.101V182.339C577.448 182.638 579.094 183.433 580.237 184.726C581.391 186.009 581.962 187.604 581.952 189.513C581.952 191.224 581.465 192.755 580.491 194.107C579.526 195.45 578.194 196.504 576.494 197.269C574.803 198.035 572.864 198.418 570.677 198.418Z" fill="#222222"/>
<path d="M603.163 192.332V187.933L616.124 167.455H619.793V173.719H617.555L608.83 187.545V187.783H626.922V192.332H603.163ZM617.734 198V190.99L617.794 189.021V167.455H623.014V198H617.734Z" fill="#222222"/>
<path d="M603.163 192.332V187.933L616.124 167.455H619.793V173.719H617.555L608.83 187.545V187.783H626.922V192.332H603.163ZM617.734 198V190.99L617.794 189.021V167.455H623.014V198H617.734Z" fill="#222222"/>
<path d="M603.163 192.332V187.933L616.124 167.455H619.793V173.719H617.555L608.83 187.545V187.783H626.922V192.332H603.163ZM617.734 198V190.99L617.794 189.021V167.455H623.014V198H617.734Z" fill="#222222"/>
<path d="M603.163 192.332V187.933L616.124 167.455H619.793V173.719H617.555L608.83 187.545V187.783H626.922V192.332H603.163ZM617.734 198V190.99L617.794 189.021V167.455H623.014V198H617.734Z" fill="#222222"/>
<path d="M436 78.5L438.129 79.0322C445.866 80.9665 454.005 80.5437 461.5 77.8182L466.5 76" stroke="#222222" stroke-width="3" stroke-linecap="round"/>
<path d="M426.5 78.5L424.371 79.0322C416.634 80.9665 408.495 80.5437 401 77.8182L396 76" stroke="#222222" stroke-width="3" stroke-linecap="round"/>
<path d="M216 124L191 109.566L191 138.434L216 124ZM163 126.5L193.5 126.5L193.5 121.5L163 121.5L163 126.5Z" fill="#888888"/>
<path d="M539 124L514 109.566L514 138.434L539 124ZM486 126.5L516.5 126.5L516.5 121.5L486 121.5L486 126.5Z" fill="#888888"/>
<path d="M377 124L352 109.566L352 138.434L377 124ZM324 126.5L354.5 126.5L354.5 121.5L324 121.5L324 126.5Z" fill="#888888"/>
<path d="M328.291 102.377C327.136 102.484 326.114 102.295 325.227 101.811C324.344 101.327 323.628 100.571 323.077 99.5444C322.531 98.517 322.187 97.2508 322.047 95.746C321.903 94.2461 322.001 92.9464 322.343 91.8471C322.689 90.7473 323.249 89.8822 324.025 89.2517C324.804 88.6163 325.769 88.2432 326.92 88.1324C328.07 88.0216 329.087 88.204 329.968 88.6794C330.855 89.1544 331.572 89.8987 332.122 90.9122C332.671 91.9213 333.015 93.176 333.155 94.6764C333.301 96.1853 333.201 97.4963 332.856 98.6095C332.516 99.7223 331.959 100.601 331.185 101.245C330.411 101.888 329.446 102.266 328.291 102.377ZM328.059 99.9662C328.847 99.8903 329.438 99.4335 329.832 98.5957C330.226 97.758 330.344 96.5468 330.187 94.9622C330.086 93.919 329.895 93.0607 329.614 92.3874C329.336 91.7137 328.986 91.221 328.563 90.9092C328.144 90.5971 327.673 90.4662 327.149 90.5167C326.366 90.5921 325.777 91.0442 325.382 91.873C324.987 92.7019 324.863 93.8978 325.009 95.4608C325.111 96.5175 325.301 97.3894 325.579 98.0766C325.862 98.7588 326.215 99.2581 326.639 99.5743C327.062 99.886 327.535 100.017 328.059 99.9662ZM337.052 101.405C336.609 101.448 336.213 101.328 335.865 101.045C335.521 100.757 335.327 100.392 335.285 99.9483C335.243 99.5095 335.363 99.1183 335.646 98.7747C335.934 98.4307 336.299 98.2373 336.743 98.1946C337.173 98.1533 337.564 98.2738 337.916 98.5561C338.269 98.8385 338.466 99.1991 338.508 99.6379C338.537 99.9334 338.487 100.212 338.358 100.473C338.234 100.729 338.058 100.942 337.83 101.113C337.602 101.28 337.343 101.377 337.052 101.405ZM343.911 86.6861L345.235 100.441L342.327 100.721L341.269 89.7265L341.188 89.7342L338.228 92.0121L337.98 89.4331L341.178 86.9494L343.911 86.6861ZM353.546 99.8303C352.597 99.9217 351.734 99.8285 350.957 99.5509C350.185 99.2728 349.552 98.8479 349.058 98.2763C348.565 97.7047 348.271 97.0236 348.177 96.2328L350.998 95.9612C351.08 96.491 351.346 96.9015 351.794 97.1927C352.242 97.484 352.753 97.602 353.326 97.5468C353.783 97.5028 354.176 97.3633 354.506 97.1282C354.84 96.8882 355.088 96.5773 355.25 96.1957C355.416 95.8091 355.476 95.3786 355.431 94.904C355.384 94.4204 355.24 94.005 354.999 93.6576C354.762 93.3099 354.455 93.0503 354.077 92.8788C353.699 92.7073 353.279 92.6416 352.817 92.6815C352.414 92.7203 352.03 92.8409 351.666 93.0432C351.306 93.2451 351.034 93.4994 350.851 93.8062L348.221 93.5918L348.174 86.2757L356.583 85.466L356.811 87.8435L350.801 88.4223L350.776 91.9019L350.857 91.8942C351.066 91.5306 351.404 91.2134 351.87 90.9425C352.337 90.6717 352.872 90.5071 353.477 90.4489C354.305 90.3692 355.062 90.4928 355.749 90.8198C356.436 91.1468 357 91.6325 357.442 92.2769C357.883 92.9168 358.144 93.6779 358.224 94.5604C358.318 95.4868 358.182 96.3313 357.817 97.094C357.457 97.8518 356.909 98.4739 356.174 98.9604C355.443 99.442 354.567 99.732 353.546 99.8303ZM369.912 81.8781L370.85 91.6181C370.87 91.8261 370.8 91.8901 370.575 91.9309C370.348 91.9527 369.648 92.0201 368.965 92.0668C369.345 92.641 369.761 93.5935 369.916 94.2085C371.09 94.1145 371.915 93.9587 372.503 93.5204C373.109 93.0802 373.24 92.4568 373.14 91.4166L372.2 81.6577L369.912 81.8781ZM367.424 85.3817C367.324 87.5101 366.883 89.6713 366.025 91.071C366.596 91.2451 367.611 91.6818 368.075 91.9425C368.9 90.3933 369.428 87.9564 369.615 85.5334L367.424 85.3817ZM373.028 85.3002C374.043 86.9203 375.003 89.1567 375.355 90.6307L377.385 89.7099C376.975 88.2224 375.986 86.0843 374.914 84.4696L373.028 85.3002ZM374.312 90.9029C373.508 94.8361 371.135 96.7634 366.841 97.9595C367.367 98.4624 367.98 99.2814 368.273 99.9404C373.037 98.2791 375.655 95.9273 376.559 91.2401L374.312 90.9029ZM361.682 84.4266L363.221 100.408L365.434 100.195L363.895 84.2135L361.682 84.4266ZM359.301 88.2444L359.505 90.3626L366.446 89.6943L366.242 87.5761L359.301 88.2444ZM362.239 88.8205C361.836 90.978 360.776 93.8478 359.598 95.4883C360.012 96.0211 360.595 96.9194 360.867 97.5613C362.143 95.5487 363.161 92.053 363.619 89.2793L362.239 88.8205ZM364.482 82.5728C363.089 83.3749 360.797 84.1492 358.732 84.7107C359.042 85.158 359.399 85.8872 359.541 86.3698C361.726 85.8731 364.306 85.1093 366.164 84.186L364.482 82.5728ZM364.434 90.4034L363.536 91.387C364.199 92.1249 365.499 93.7366 366.041 94.6007L367.156 92.6991C366.754 92.2987 364.945 90.755 364.434 90.4034Z" fill="#888888"/>
</svg>
